<?xml version="1.0" encoding="UTF-8" standalone="no"?>
<!-- Created with Inkscape (http://www.inkscape.org/) -->

<svg
   xmlns:dc="http://purl.org/dc/elements/1.1/"
   xmlns:cc="http://creativecommons.org/ns#"
   xmlns:rdf="http://www.w3.org/1999/02/22-rdf-syntax-ns#"
   xmlns:svg="http://www.w3.org/2000/svg"
   xmlns="http://www.w3.org/2000/svg"
   xmlns:sodipodi="http://sodipodi.sourceforge.net/DTD/sodipodi-0.dtd"
   xmlns:inkscape="http://www.inkscape.org/namespaces/inkscape"
   width="100"
   height="100"
   id="svg3107"
   version="1.1"
   inkscape:version="0.48.4 r9939"
   sodipodi:docname="bioInRoboticsUOttawa-squared.svg"
   inkscape:export-filename="/home/vinicius/Desktop/bioInRoboticsUOttawa-squared.png"
   inkscape:export-xdpi="90"
   inkscape:export-ydpi="90">
  <defs
     id="defs3109" />
  <sodipodi:namedview
     id="base"
     pagecolor="#ffffff"
     bordercolor="#666666"
     borderopacity="1.0"
     inkscape:pageopacity="1"
     inkscape:pageshadow="2"
     inkscape:zoom="3.959798"
     inkscape:cx="52.992905"
     inkscape:cy="41.291461"
     inkscape:document-units="px"
     inkscape:current-layer="layer1"
     showgrid="false"
     inkscape:window-width="1366"
     inkscape:window-height="744"
     inkscape:window-x="0"
     inkscape:window-y="24"
     inkscape:window-maximized="1" />
  <metadata
     id="metadata3112">
    <rdf:RDF>
      <cc:Work
         rdf:about="">
        <dc:format>image/svg+xml</dc:format>
        <dc:type
           rdf:resource="http://purl.org/dc/dcmitype/StillImage" />
        <dc:title></dc:title>
      </cc:Work>
    </rdf:RDF>
  </metadata>
  <g
     inkscape:label="Layer 1"
     inkscape:groupmode="layer"
     id="layer1"
     transform="translate(0,-952.36218)">
    <text
       xml:space="preserve"
       style="font-size:17.25445557px;font-style:normal;font-variant:normal;font-weight:600;font-stretch:normal;text-align:center;line-height:125%;letter-spacing:0px;word-spacing:0px;writing-mode:lr-tb;text-anchor:middle;fill:#72634d;fill-opacity:1;stroke:none;font-family:Myriad Pro;-inkscape-font-specification:Myriad Pro Semi-Bold"
       x="49.821083"
       y="996.69739"
       id="text2985-1-4-4-7"
       sodipodi:linespacing="125%"><tspan
         sodipodi:role="line"
         x="49.821083"
         y="996.69739"
         id="tspan2991-0-3-3-8"
         style="font-size:17.25445557px;font-style:normal;font-variant:normal;font-weight:600;font-stretch:normal;text-align:center;line-height:125%;writing-mode:lr-tb;text-anchor:middle;fill:#72634d;fill-opacity:1;font-family:Myriad Pro;-inkscape-font-specification:Myriad Pro Semi-Bold">BIOINSPIRED</tspan></text>
    <text
       xml:space="preserve"
       style="font-size:17.25445557px;font-style:normal;font-variant:normal;font-weight:600;font-stretch:normal;text-align:start;line-height:125%;letter-spacing:2.58816814px;word-spacing:0px;writing-mode:lr-tb;text-anchor:start;fill:#72634d;fill-opacity:1;stroke:none;font-family:Myriad Pro;-inkscape-font-specification:Myriad Pro Semi-Bold"
       x="1.5576468"
       y="1009.874"
       id="text2993-4-6-1-9"
       sodipodi:linespacing="125%"><tspan
         sodipodi:role="line"
         id="tspan2995-9-3-1-5"
         x="1.5576468"
         y="1009.874"
         style="font-size:17.25445557px;font-style:normal;font-variant:normal;font-weight:600;font-stretch:normal;text-align:start;line-height:125%;letter-spacing:2.90450001px;writing-mode:lr-tb;text-anchor:start;fill:#72634d;fill-opacity:1;font-family:Myriad Pro;-inkscape-font-specification:Myriad Pro Semi-Bold">ROBOTICS</tspan></text>
    <path
       inkscape:connector-curvature="0"
       d="m 46.321246,1024.0136 c -0.04285,-0.3464 -0.07157,-0.7818 -0.07157,-1.4912 -0.565641,0.9837 -1.506872,1.5655 -2.577385,1.5655 -0.927121,0 -1.636861,-0.4494 -1.926207,-1.2172 -0.144367,-0.3914 -0.202486,-0.9846 -0.202486,-2.2449 l 0,-2.3887 c 0,-0.7534 -0.05813,-1.0565 -0.217107,-1.1871 -0.08792,-0.087 -0.21724,-0.1171 -0.49354,-0.1299 -0.187441,0 -0.187441,0 -0.260617,0 l 0,-0.3191 2.244303,-0.1441 c -0.07146,1.3453 -0.08558,1.6936 -0.08558,2.6929 l 0,1.2594 c 0,1.4621 0.02807,1.8535 0.202493,2.3599 0.173458,0.5357 0.579083,0.8103 1.172412,0.8103 0.796223,0 1.505968,-0.5212 1.883093,-1.4044 0.216204,-0.4915 0.260617,-0.8107 0.260617,-1.708 l 0,-2.2299 c 0,-0.7675 -0.0444,-1.0427 -0.218177,-1.1724 -0.08752,-0.088 -0.231859,-0.1318 -0.49247,-0.1446 l -0.260882,0 0,-0.3191 2.244937,-0.1441 c -0.04348,1.0852 -0.07184,2.0406 -0.07184,2.6929 l 0,2.7363 c 0,1.4487 0.130627,1.7087 0.882035,1.7087 l 0.101865,0 0,0.3177 -2.113906,0.1011"
       style="fill:#72634d;fill-opacity:1;fill-rule:nonzero;stroke:none"
       id="path3849-6-1-4" />
    <path
       inkscape:connector-curvature="0"
       d="m 53.126282,1022.1323 c 0.578882,1.0292 1.491849,1.578 2.650285,1.578 1.158435,0 2.070736,-0.5488 2.649288,-1.578 0.521028,-0.9416 0.781541,-2.0718 0.781541,-3.4742 0,-1.4054 -0.260513,-2.5353 -0.781541,-3.4762 -0.578552,-1.0415 -1.490853,-1.5777 -2.649288,-1.5777 -1.158436,0 -2.071403,0.5504 -2.650285,1.5777 -0.521032,0.9557 -0.780873,2.0987 -0.780873,3.4762 0,1.3736 0.259841,2.5036 0.780873,3.4742 z m -1.041726,-7.2678 c 0.867824,-1.0872 2.127923,-1.6506 3.692011,-1.6506 1.578138,0 2.808807,0.5494 3.691009,1.6506 0.796593,1.0121 1.202915,2.2713 1.202915,3.7936 0,1.5196 -0.406322,2.7936 -1.202915,3.7773 -0.897254,1.1156 -2.112871,1.6649 -3.691009,1.6649 -1.564088,0 -2.837898,-0.5788 -3.692011,-1.6649 -0.796586,-1.0125 -1.202912,-2.2722 -1.202912,-3.7773 0,-1.5223 0.391607,-2.7672 1.202912,-3.7936"
       style="fill:#72634d;fill-opacity:1;fill-rule:nonzero;stroke:none"
       id="path3851-6-8-4" />
    <path
       inkscape:connector-curvature="0"
       d="m 63.957855,1021.8575 c 0,0.8529 0.04181,1.2307 0.187941,1.4329 0.145139,0.2024 0.375889,0.3044 0.708641,0.3044 0.318034,0 0.59326,-0.073 0.9113,-0.26 l 0.131761,0.3755 c -0.477892,0.2472 -0.941064,0.3619 -1.463097,0.3619 -0.709303,0 -1.245048,-0.2463 -1.491849,-0.7091 -0.159523,-0.2902 -0.201325,-0.6083 -0.201325,-1.6796 l 0,-4.6913 -0.911629,0 0,-0.3332 c 0.853108,-0.073 1.287522,-0.6368 1.504228,-1.9973 l 0.665832,-0.1902 c -0.02744,0.6233 -0.04182,1.1738 -0.04182,2.1295 l 1.737316,0 0,0.3912 -1.737316,0 0,4.8653"
       style="fill:#72634d;fill-opacity:1;fill-rule:nonzero;stroke:none"
       id="path3853-2-7-3" />
    <path
       inkscape:connector-curvature="0"
       d="m 68.731381,1021.8575 c 0,0.8529 0.04181,1.2307 0.186941,1.4329 0.145811,0.2024 0.376561,0.3044 0.710314,0.3044 0.318033,0 0.593593,-0.073 0.911632,-0.26 l 0.130088,0.3755 c -0.476884,0.2472 -0.940057,0.3619 -1.461418,0.3619 -0.710314,0 -1.246726,-0.2463 -1.49152,-0.7091 -0.160192,-0.2902 -0.203327,-0.6083 -0.203327,-1.6796 l 0,-4.6913 -0.911634,0 0,-0.3332 c 0.853779,-0.073 1.287855,-0.6368 1.504893,-1.9973 l 0.665833,-0.1902 c -0.02778,0.6233 -0.04181,1.1738 -0.04181,2.1295 l 1.737656,0 0,0.3912 -1.737656,0 0,4.8653"
       style="fill:#72634d;fill-opacity:1;fill-rule:nonzero;stroke:none"
       id="path3855-9-5-7" />
    <path
       inkscape:connector-curvature="0"
       d="m 76.303349,1019.8736 c -1.288528,0.1151 -1.853698,0.232 -2.432917,0.5204 -0.63607,0.3061 -0.969822,0.8847 -0.969822,1.6514 0,0.9121 0.491602,1.534 1.216629,1.534 0.738398,0 1.491181,-0.4338 1.853692,-1.057 0.231088,-0.4042 0.332418,-1.0126 0.332418,-1.9685 l 0,-0.6803 z m 2.100167,4.0109 c -0.56551,0.087 -1.202919,0.144 -1.492189,0.144 -0.433748,0 -0.549456,-0.2317 -0.607978,-1.201 -0.231422,0.2607 -0.419697,0.4188 -0.708974,0.6222 -0.636741,0.4628 -1.144724,0.6225 -1.882456,0.6225 -0.636741,0 -1.115966,-0.1454 -1.477142,-0.4481 -0.391273,-0.3481 -0.637068,-0.9275 -0.637068,-1.5349 0,-1.1442 0.724687,-1.883 2.128923,-2.201 0.752784,-0.1729 1.519612,-0.2758 2.576717,-0.348 l 0,-0.9118 c 0,-0.6667 -0.05853,-1.0134 -0.201658,-1.3168 -0.190283,-0.3787 -0.5946,-0.5651 -1.187866,-0.5651 -0.95477,0 -1.448713,0.4341 -1.505894,1.3316 -0.01576,0.3044 -0.04417,0.405 -0.159523,0.4927 -0.101997,0.073 -0.289605,0.1144 -0.507316,0.1144 -0.491263,0 -0.709308,-0.1301 -0.709308,-0.433 0,-0.5229 0.376562,-1.0434 0.98454,-1.3904 0.550118,-0.3043 1.259765,-0.463 2.114211,-0.463 0.926013,0 1.592845,0.2162 1.940976,0.6364 0.289278,0.3603 0.419703,0.8398 0.419703,1.6366 0,0.043 0,0.043 -0.02945,1.4624 l -0.01404,1.3756 -0.01437,0.6652 c 0,0.6087 0.07123,1.1298 0.158851,1.2469 0.08729,0.1147 0.259846,0.1575 0.811304,0.1575 l 0,0.3051"
       style="fill:#72634d;fill-opacity:1;fill-rule:nonzero;stroke:none"
       id="path3857-7-2-3" />
    <path
       inkscape:connector-curvature="0"
       d="m 82.022286,1023.9713 -0.752449,0 -1.795171,-6.0096 c -0.246135,-0.8259 -0.420036,-0.9986 -1.129005,-1.0416 l 0,-0.3191 3.213453,0 0,0.3191 c -0.694596,0.028 -0.970155,0.1733 -0.970155,0.5355 0,0.1153 0.04383,0.3333 0.131087,0.6361 l 1.30224,4.5474 1.912553,-5.849 0.592933,0 1.839313,5.849 1.259097,-4.2566 c 0.116715,-0.3622 0.173897,-0.6386 0.173897,-0.8404 0,-0.2469 -0.144799,-0.4343 -0.405986,-0.5215 -0.173228,-0.058 -0.275226,-0.073 -0.651787,-0.1005 l 0,-0.3191 2.838571,0 0,0.3191 c -0.796259,0.043 -1.070817,0.3187 -1.418615,1.4325 l -1.752369,5.6187 -0.73807,0 -1.809216,-5.5608 -1.840321,5.5608"
       style="fill:#72634d;fill-opacity:1;fill-rule:nonzero;stroke:none"
       id="path3859-3-6-9" />
    <path
       inkscape:connector-curvature="0"
       d="m 94.373474,1019.8736 c -1.287871,0.1151 -1.853707,0.232 -2.431916,0.5204 -0.638076,0.3061 -0.971163,0.8847 -0.971163,1.6514 0,0.9121 0.492603,1.534 1.217288,1.534 0.73807,0 1.491528,-0.4338 1.852705,-1.057 0.232091,-0.4042 0.333086,-1.0126 0.333086,-1.9685 l 0,-0.6803 z m 2.099495,4.0109 c -0.564843,0.087 -1.200572,0.144 -1.491527,0.144 -0.433739,0 -0.550791,-0.2317 -0.607968,-1.201 -0.231422,0.2607 -0.419704,0.4188 -0.708316,0.6222 -0.638734,0.4628 -1.145391,0.6225 -1.883126,0.6225 -0.636398,0 -1.115291,-0.1454 -1.477135,-0.4481 -0.391607,-0.3481 -0.636735,-0.9275 -0.636735,-1.5349 0,-1.1442 0.72402,-1.883 2.128256,-2.201 0.752447,-0.1729 1.519941,-0.2758 2.577056,-0.348 l 0,-0.9118 c 0,-0.6667 -0.05786,-1.0134 -0.203001,-1.3168 -0.187604,-0.3787 -0.592925,-0.5651 -1.186199,-0.5651 -0.956776,0 -1.448377,0.4341 -1.506898,1.3316 -0.01435,0.3044 -0.04278,0.405 -0.159183,0.4927 -0.09966,0.073 -0.288933,0.1144 -0.507314,0.1144 -0.49093,0 -0.707974,-0.1301 -0.707974,-0.433 0,-0.5229 0.376561,-1.0434 0.984208,-1.3904 0.549779,-0.3043 1.259762,-0.463 2.113539,-0.463 0.926688,0 1.593519,0.2162 1.941317,0.6364 0.288266,0.3603 0.419361,0.8398 0.419361,1.6366 0,0.043 0,0.043 -0.02942,1.4624 l -0.01336,1.3756 -0.0157,0.6652 c 0,0.6087 0.07257,1.1298 0.160861,1.2469 0.08557,0.1147 0.259511,0.1575 0.809299,0.1575 l 0,0.3051"
       style="fill:#72634d;fill-opacity:1;fill-rule:nonzero;stroke:none"
       id="path3861-7-7-5" />
  </g>
</svg>
