<?xml version="1.0" encoding="UTF-8" standalone="no"?>
<!-- Created with Inkscape (http://www.inkscape.org/) -->

<svg
   xmlns:dc="http://purl.org/dc/elements/1.1/"
   xmlns:cc="http://creativecommons.org/ns#"
   xmlns:rdf="http://www.w3.org/1999/02/22-rdf-syntax-ns#"
   xmlns:svg="http://www.w3.org/2000/svg"
   xmlns="http://www.w3.org/2000/svg"
   xmlns:sodipodi="http://sodipodi.sourceforge.net/DTD/sodipodi-0.dtd"
   xmlns:inkscape="http://www.inkscape.org/namespaces/inkscape"
   width="1052.3622"
   height="744.09448"
   id="svg2"
   version="1.1"
   inkscape:version="0.48.4 r9939"
   sodipodi:docname="bioInRoboticsuOttawalogo.svg"
   inkscape:export-filename="/home/vinicius/Desktop/bioInRoboticsuOttawalogo.png"
   inkscape:export-xdpi="90"
   inkscape:export-ydpi="90">
  <defs
     id="defs4" />
  <sodipodi:namedview
     id="base"
     pagecolor="#ffffff"
     bordercolor="#666666"
     borderopacity="1.0"
     inkscape:pageopacity="1"
     inkscape:pageshadow="2"
     inkscape:zoom="0.9899495"
     inkscape:cx="633.24394"
     inkscape:cy="319.46346"
     inkscape:document-units="px"
     inkscape:current-layer="layer1"
     showgrid="false"
     showguides="true"
     inkscape:guide-bbox="true"
     inkscape:window-width="1366"
     inkscape:window-height="744"
     inkscape:window-x="0"
     inkscape:window-y="24"
     inkscape:window-maximized="1" />
  <metadata
     id="metadata7">
    <rdf:RDF>
      <cc:Work
         rdf:about="">
        <dc:format>image/svg+xml</dc:format>
        <dc:type
           rdf:resource="http://purl.org/dc/dcmitype/StillImage" />
        <dc:title></dc:title>
      </cc:Work>
    </rdf:RDF>
  </metadata>
  <g
     inkscape:label="Layer 1"
     inkscape:groupmode="layer"
     id="layer1"
     transform="translate(0,-308.2677)">
    <g
       id="g4505"
       transform="translate(-107.63927,191.00875)">
      <text
         sodipodi:linespacing="125%"
         id="text2985"
         y="657.52899"
         x="259.14029"
         style="font-size:30px;font-style:normal;font-variant:normal;font-weight:normal;font-stretch:normal;text-align:center;line-height:125%;letter-spacing:0px;word-spacing:0px;writing-mode:lr-tb;text-anchor:middle;fill:#72634d;fill-opacity:1;stroke:none;font-family:Myriad Pro;-inkscape-font-specification:Myriad Pro"
         xml:space="preserve"><tspan
           style="font-size:30px;font-style:normal;font-variant:normal;font-weight:600;font-stretch:normal;text-align:center;line-height:125%;writing-mode:lr-tb;text-anchor:middle;fill:#72634d;fill-opacity:1;font-family:Myriad Pro;-inkscape-font-specification:Myriad Pro Semi-Bold"
           id="tspan2991"
           y="657.52899"
           x="259.14029"
           sodipodi:role="line">BioInspired</tspan></text>
      <text
         sodipodi:linespacing="125%"
         id="text2993"
         y="684.76898"
         x="185.01285"
         style="font-size:30px;font-style:normal;font-variant:normal;font-weight:normal;font-stretch:normal;text-align:start;line-height:125%;letter-spacing:4.5px;word-spacing:0px;writing-mode:lr-tb;text-anchor:start;fill:#72634d;fill-opacity:1;stroke:none;font-family:Myriad Pro;-inkscape-font-specification:Myriad Pro"
         xml:space="preserve"><tspan
           style="font-size:30px;font-style:normal;font-variant:normal;font-weight:600;font-stretch:normal;text-align:start;line-height:125%;letter-spacing:4.94999981px;writing-mode:lr-tb;text-anchor:start;fill:#72634d;fill-opacity:1;font-family:Myriad Pro;-inkscape-font-specification:Myriad Pro Semi-Bold"
           y="684.76898"
           x="185.01285"
           id="tspan2995"
           sodipodi:role="line">Robotics</tspan></text>
      <g
         style="fill:#72634d;fill-opacity:1"
         transform="matrix(1.1475968,0,0,1.1475968,-344.55463,-129.25798)"
         id="g3911">
        <path
           inkscape:connector-curvature="0"
           d="m 485.8186,736.6508 c -0.0779,-0.62984 -0.13011,-1.4214 -0.13011,-2.71101 -1.02835,1.78835 -2.73952,2.84591 -4.68573,2.84591 -1.6855,0 -2.97583,-0.81699 -3.50186,-2.21299 -0.26247,-0.71128 -0.36813,-1.78997 -0.36813,-4.08129 l 0,-4.34257 c 0,-1.36967 -0.10567,-1.92063 -0.3947,-2.1581 -0.15985,-0.15796 -0.39495,-0.21304 -0.89728,-0.23633 -0.34077,0 -0.34077,0 -0.47379,0 l 0,-0.57995 4.08017,-0.26198 c -0.12991,2.44573 -0.15559,3.07913 -0.15559,4.89548 l 0,2.28992 c 0,2.65804 0.0509,3.36956 0.36815,4.29029 0.31535,0.97374 1.05277,1.47319 2.13146,1.47319 1.44755,0 2.73788,-0.9476 3.42349,-2.55328 0.39306,-0.89349 0.47381,-1.47411 0.47381,-3.10527 l 0,-4.05397 c 0,-1.39526 -0.0808,-1.8957 -0.39666,-2.13153 -0.15911,-0.15839 -0.4215,-0.23961 -0.89531,-0.2629 l -0.47429,0 0,-0.57995 4.08133,-0.26198 c -0.0791,1.97284 -0.13059,3.70968 -0.13059,4.89548 l 0,4.97477 c 0,2.6338 0.23747,3.10642 1.60355,3.10642 l 0.18519,0 0,0.57758 -3.84311,0.18406"
           style="fill:#72634d;fill-opacity:1;fill-rule:nonzero;stroke:none"
           id="path3849" />
        <path
           inkscape:connector-curvature="0"
           d="m 498.19026,733.2304 c 1.05241,1.87099 2.7122,2.86894 4.81827,2.86894 2.10604,0 3.76463,-0.99795 4.81643,-2.86894 0.94724,-1.71184 1.42086,-3.76664 1.42086,-6.3161 0,-2.55499 -0.47362,-4.60931 -1.42086,-6.31975 -1.0518,-1.8935 -2.71039,-2.8684 -4.81643,-2.8684 -2.10607,0 -3.76586,1.00055 -4.81827,2.8684 -0.94726,1.73725 -1.41964,3.81534 -1.41964,6.31975 0,2.49723 0.47238,4.55154 1.41964,6.3161 z m -1.89387,-13.21295 c 1.57772,-1.97668 3.86859,-3.0007 6.71214,-3.0007 2.86907,0 5.10644,0.99861 6.71029,3.0007 1.44822,1.83988 2.18693,4.12931 2.18693,6.89685 0,2.7625 -0.73871,5.07879 -2.18693,6.86711 -1.63121,2.02819 -3.84122,3.02685 -6.71029,3.02685 -2.84355,0 -5.15935,-1.05209 -6.71214,-3.02685 -1.44822,-1.8406 -2.18692,-4.13077 -2.18692,-6.86711 0,-2.76754 0.71194,-5.03088 2.18692,-6.89685"
           style="fill:#72634d;fill-opacity:1;fill-rule:nonzero;stroke:none"
           id="path3851" />
        <path
           inkscape:connector-curvature="0"
           d="m 517.88222,732.73094 c 0,1.55036 0.076,2.23721 0.34169,2.60485 0.26386,0.36812 0.68336,0.55337 1.28831,0.55337 0.57818,0 1.07857,-0.13299 1.65676,-0.47262 l 0.23953,0.6828 c -0.86879,0.44934 -1.71086,0.65785 -2.65992,0.65785 -1.28952,0 -2.26351,-0.44767 -2.71221,-1.28911 -0.29001,-0.5277 -0.36601,-1.10599 -0.36601,-3.05348 l 0,-8.52909 -1.65735,0 0,-0.60562 c 1.55096,-0.13345 2.34073,-1.15778 2.7347,-3.63124 l 1.2105,-0.34558 c -0.05,1.13311 -0.076,2.1339 -0.076,3.8714 l 3.15847,0 0,0.71104 -3.15847,0 0,8.84543"
           style="fill:#72634d;fill-opacity:1;fill-rule:nonzero;stroke:none"
           id="path3853" />
        <path
           inkscape:connector-curvature="0"
           d="m 526.56057,732.73094 c 0,1.55036 0.076,2.23721 0.33986,2.60485 0.26508,0.36812 0.68459,0.55337 1.29136,0.55337 0.57818,0 1.07916,-0.13299 1.65735,-0.47262 l 0.23651,0.6828 c -0.86698,0.44934 -1.70904,0.65785 -2.65688,0.65785 -1.29137,0 -2.26657,-0.44767 -2.71161,-1.28911 -0.29122,-0.5277 -0.36965,-1.10599 -0.36965,-3.05348 l 0,-8.52909 -1.65737,0 0,-0.60562 c 1.55219,-0.13345 2.34134,-1.15778 2.73593,-3.63124 l 1.21049,-0.34558 c -0.0503,1.13311 -0.076,2.1339 -0.076,3.8714 l 3.15908,0 0,0.71104 -3.15908,0 0,8.84543"
           style="fill:#72634d;fill-opacity:1;fill-rule:nonzero;stroke:none"
           id="path3855" />
        <path
           inkscape:connector-curvature="0"
           d="m 540.32652,729.12414 c -2.34256,0.20902 -3.37006,0.42157 -4.42308,0.94596 -1.15639,0.55667 -1.76315,1.6083 -1.76315,3.0024 0,1.65817 0.89373,2.78887 2.21183,2.78887 1.34244,0 2.711,-0.78872 3.37006,-1.92158 0.42012,-0.73505 0.60434,-1.84104 0.60434,-3.57901 l 0,-1.23664 z m 3.81813,7.29178 c -1.0281,0.1577 -2.18691,0.26172 -2.71281,0.26172 -0.78855,0 -0.99893,-0.42108 -1.10532,-2.1833 -0.42073,0.47381 -0.76302,0.76142 -1.28892,1.13119 -1.1576,0.84121 -2.08114,1.13166 -3.42234,1.13166 -1.1576,0 -2.02884,-0.26431 -2.68547,-0.81459 -0.71134,-0.63293 -1.15821,-1.68623 -1.15821,-2.79057 0,-2.07997 1.31751,-3.42343 3.87043,-4.00127 1.36857,-0.31445 2.76267,-0.50158 4.68451,-0.6329 l 0,-1.65748 c 0,-1.21196 -0.1064,-1.84251 -0.36661,-2.39395 -0.34595,-0.68872 -1.08101,-1.02742 -2.15956,-1.02742 -1.73579,0 -2.63378,0.78921 -2.73775,2.42079 -0.0286,0.55334 -0.0802,0.73621 -0.29001,0.89581 -0.18544,0.13303 -0.5265,0.20781 -0.9223,0.20781 -0.89313,0 -1.28954,-0.23632 -1.28954,-0.78703 0,-0.95071 0.68459,-1.8971 1.7899,-2.52763 1.00013,-0.55339 2.29028,-0.84193 3.84367,-0.84193 1.68351,0 2.89583,0.39304 3.52873,1.15704 0.52591,0.65504 0.76302,1.52665 0.76302,2.97536 0,0.0784 0,0.0784 -0.0535,2.65871 l -0.0255,2.50081 -0.0262,1.20934 c 0,1.10671 0.12951,2.05383 0.2888,2.26687 0.15869,0.20851 0.4724,0.28641 1.47497,0.28641 l 0,0.55455"
           style="fill:#72634d;fill-opacity:1;fill-rule:nonzero;stroke:none"
           id="path3857" />
        <path
           inkscape:connector-curvature="0"
           d="m 550.72364,736.57362 -1.36796,0 -3.26366,-10.9252 c -0.44748,-1.50166 -0.76362,-1.81563 -2.05255,-1.894 l 0,-0.57995 5.84211,0 0,0.57995 c -1.26279,0.0499 -1.76377,0.31519 -1.76377,0.97374 0,0.2097 0.0797,0.60605 0.23833,1.15658 l 2.3675,8.26719 3.47705,-10.63383 1.07794,0 3.34392,10.63383 2.28905,-7.73879 c 0.21219,-0.65857 0.31616,-1.16083 0.31616,-1.52781 0,-0.44881 -0.26327,-0.78965 -0.73809,-0.94802 -0.31493,-0.10452 -0.50038,-0.13303 -1.18497,-0.18289 l 0,-0.57995 5.16056,0 0,0.57995 c -1.44761,0.0784 -1.94677,0.57947 -2.57907,2.6046 l -3.18582,10.2146 -1.34182,0 -3.28919,-10.10941 -3.34572,10.10941"
           style="fill:#72634d;fill-opacity:1;fill-rule:nonzero;stroke:none"
           id="path3859" />
        <path
           inkscape:connector-curvature="0"
           d="m 573.17827,729.12414 c -2.34134,0.20902 -3.37005,0.42157 -4.42125,0.94596 -1.16003,0.55667 -1.76558,1.6083 -1.76558,3.0024 0,1.65817 0.89555,2.78887 2.21306,2.78887 1.34182,0 2.7116,-0.78872 3.36823,-1.92158 0.42194,-0.73505 0.60554,-1.84104 0.60554,-3.57901 l 0,-1.23664 z m 3.81692,7.29178 c -1.02688,0.1577 -2.18267,0.26172 -2.7116,0.26172 -0.78855,0 -1.00134,-0.42108 -1.10532,-2.1833 -0.42073,0.47381 -0.76301,0.76142 -1.2877,1.13119 -1.16125,0.84121 -2.08234,1.13166 -3.42355,1.13166 -1.15701,0 -2.02763,-0.26431 -2.68546,-0.81459 -0.71196,-0.63293 -1.1576,-1.68623 -1.1576,-2.79057 0,-2.07997 1.31628,-3.42343 3.8692,-4.00127 1.36796,-0.31445 2.76328,-0.50158 4.68511,-0.6329 l 0,-1.65748 c 0,-1.21196 -0.10518,-1.84251 -0.36904,-2.39395 -0.34108,-0.68872 -1.07796,-1.02742 -2.15651,-1.02742 -1.73944,0 -2.63318,0.78921 -2.73957,2.42079 -0.0261,0.55334 -0.0778,0.73621 -0.28941,0.89581 -0.18117,0.13303 -0.52529,0.20781 -0.9223,0.20781 -0.89252,0 -1.28711,-0.23632 -1.28711,-0.78703 0,-0.95071 0.68459,-1.8971 1.78929,-2.52763 0.99953,-0.55339 2.29028,-0.84193 3.84245,-0.84193 1.68473,0 2.89704,0.39304 3.52934,1.15704 0.52409,0.65504 0.76242,1.52665 0.76242,2.97536 0,0.0784 0,0.0784 -0.0534,2.65871 l -0.0244,2.50081 -0.0286,1.20934 c 0,1.10671 0.13193,2.05383 0.29242,2.26687 0.15566,0.20851 0.4718,0.28641 1.47133,0.28641 l 0,0.55455"
           style="fill:#72634d;fill-opacity:1;fill-rule:nonzero;stroke:none"
           id="path3861" />
      </g>
    </g>
    <g
       id="g4519"
       transform="translate(-118.92265,-147.09166)">
      <path
         id="path3849-6"
         style="fill:#72634d;fill-opacity:1;fill-rule:nonzero;stroke:none"
         d="m 241.97972,871.10906 c -0.0745,-0.60235 -0.12443,-1.35937 -0.12443,-2.5927 -0.98347,1.7103 -2.61997,2.72172 -4.48125,2.72172 -1.61197,0 -2.84598,-0.78133 -3.34906,-2.11643 -0.25101,-0.68024 -0.35206,-1.71185 -0.35206,-3.90317 l 0,-4.15308 c 0,-1.30989 -0.10106,-1.83681 -0.37748,-2.06392 -0.15287,-0.15106 -0.37771,-0.20374 -0.85811,-0.22601 -0.3259,0 -0.3259,0 -0.45313,0 l 0,-0.55465 3.90213,-0.25054 c -0.12426,2.339 -0.14879,2.94476 -0.14879,4.68185 l 0,2.18998 c 0,2.54205 0.0488,3.22252 0.35207,4.10307 0.30159,0.93125 1.00684,1.4089 2.03845,1.4089 1.38438,0 2.6184,-0.90624 3.2741,-2.44185 0.37591,-0.8545 0.45313,-1.40979 0.45313,-2.96976 l 0,-3.87707 c 0,-1.33437 -0.0772,-1.81297 -0.37934,-2.03851 -0.15217,-0.15147 -0.40313,-0.22915 -0.85625,-0.25142 l -0.45359,0 0,-0.55465 3.90323,-0.25054 c -0.0756,1.88675 -0.1249,3.54778 -0.1249,4.68185 l 0,4.75767 c 0,2.51887 0.22712,2.97086 1.53358,2.97086 l 0.17711,0 0,0.55238 -3.67541,0.17602"
         inkscape:connector-curvature="0" />
      <path
         id="path3851-6"
         style="fill:#72634d;fill-opacity:1;fill-rule:nonzero;stroke:none"
         d="m 253.81151,867.83792 c 1.00649,1.78935 2.59385,2.74375 4.608,2.74375 2.01415,0 3.60035,-0.9544 4.60627,-2.74375 0.9059,-1.63713 1.35885,-3.60227 1.35885,-6.04047 0,-2.44349 -0.45295,-4.40816 -1.35885,-6.04396 -1.00592,-1.81088 -2.59212,-2.74323 -4.60627,-2.74323 -2.01415,0 -3.60151,0.95689 -4.608,2.74323 -0.90591,1.66144 -1.35769,3.64884 -1.35769,6.04396 0,2.38825 0.45178,4.35293 1.35769,6.04047 z m -1.81123,-12.63635 c 1.50887,-1.89041 3.69978,-2.86975 6.41923,-2.86975 2.74388,0 4.88362,0.95503 6.41749,2.86975 1.38502,1.75959 2.09148,3.94911 2.09148,6.59588 0,2.64194 -0.70646,4.85716 -2.09148,6.56744 -1.56004,1.93968 -3.67361,2.89476 -6.41749,2.89476 -2.71945,0 -4.9342,-1.00618 -6.41923,-2.89476 -1.38501,-1.76028 -2.09148,-3.9505 -2.09148,-6.56744 0,-2.64677 0.68088,-4.81134 2.09148,-6.59588"
         inkscape:connector-curvature="0" />
      <path
         id="path3853-2"
         style="fill:#72634d;fill-opacity:1;fill-rule:nonzero;stroke:none"
         d="m 272.64416,867.36026 c 0,1.4827 0.0727,2.13959 0.32677,2.49118 0.25235,0.35206 0.65355,0.52922 1.2321,0.52922 0.55296,0 1.03149,-0.12719 1.58446,-0.45199 l 0.22909,0.653 c -0.8309,0.42972 -1.63621,0.62915 -2.54386,0.62915 -1.23325,0 -2.16474,-0.42815 -2.59385,-1.23286 -0.27736,-0.50468 -0.35004,-1.05772 -0.35004,-2.92023 l 0,-8.1569 -1.58503,0 0,-0.57918 c 1.48328,-0.12763 2.23859,-1.10726 2.61537,-3.47278 l 1.15767,-0.3305 c -0.0477,1.08365 -0.0727,2.04078 -0.0727,3.70245 l 3.02064,0 0,0.68001 -3.02064,0 0,8.45943"
         inkscape:connector-curvature="0" />
      <path
         id="path3855-9"
         style="fill:#72634d;fill-opacity:1;fill-rule:nonzero;stroke:none"
         d="m 280.9438,867.36026 c 0,1.4827 0.0727,2.13959 0.32503,2.49118 0.25352,0.35206 0.65472,0.52922 1.23501,0.52922 0.55296,0 1.03207,-0.12719 1.58504,-0.45199 l 0.22618,0.653 c -0.82915,0.42972 -1.63446,0.62915 -2.54094,0.62915 -1.23501,0 -2.16766,-0.42815 -2.59328,-1.23286 -0.27852,-0.50468 -0.35352,-1.05772 -0.35352,-2.92023 l 0,-8.1569 -1.58504,0 0,-0.57918 c 1.48445,-0.12763 2.23917,-1.10726 2.61653,-3.47278 l 1.15767,-0.3305 c -0.0483,1.08365 -0.0727,2.04078 -0.0727,3.70245 l 3.02123,0 0,0.68001 -3.02123,0 0,8.45943"
         inkscape:connector-curvature="0" />
      <path
         id="path3857-7"
         style="fill:#72634d;fill-opacity:1;fill-rule:nonzero;stroke:none"
         d="m 294.10904,863.91085 c -2.24034,0.19991 -3.22299,0.40318 -4.23007,0.90468 -1.10592,0.53238 -1.68621,1.53812 -1.68621,2.87139 0,1.5858 0.85474,2.66716 2.11533,2.66716 1.28384,0 2.59269,-0.75429 3.22298,-1.83772 0.40179,-0.70298 0.57797,-1.76069 0.57797,-3.42283 l 0,-1.18268 z m 3.65152,6.97358 c -0.98324,0.15082 -2.09149,0.2503 -2.59444,0.2503 -0.75415,0 -0.95533,-0.4027 -1.05708,-2.08803 -0.40237,0.45315 -0.72972,0.7282 -1.23268,1.08184 -1.10709,0.8045 -1.99031,1.08228 -3.27299,1.08228 -1.10709,0 -1.94031,-0.25279 -2.56828,-0.77906 -0.6803,-0.6053 -1.10766,-1.61264 -1.10766,-2.66879 0,-1.9892 1.26,-3.27404 3.70152,-3.82665 1.30885,-0.30072 2.64212,-0.4797 4.48009,-0.60529 l 0,-1.58515 c 0,-1.15907 -0.10176,-1.7621 -0.35062,-2.28947 -0.33084,-0.65867 -1.03382,-0.9826 -2.06532,-0.9826 -1.66004,0 -2.51885,0.75478 -2.61827,2.31517 -0.0274,0.52918 -0.0768,0.70408 -0.27736,0.85671 -0.17734,0.12722 -0.50353,0.19874 -0.88206,0.19874 -0.85415,0 -1.23326,-0.22601 -1.23326,-0.75269 0,-0.90922 0.65472,-1.8143 1.7118,-2.41733 0.95648,-0.52923 2.19033,-0.80519 3.67594,-0.80519 1.61004,0 2.76945,0.37591 3.37474,1.10656 0.50296,0.62646 0.72973,1.46002 0.72973,2.84551 0,0.0749 0,0.0749 -0.0512,2.54269 l -0.0244,2.39169 -0.025,1.15656 c 0,1.05842 0.12385,1.9642 0.27619,2.16793 0.15176,0.19943 0.45179,0.27392 1.4106,0.27392 l 0,0.53035"
         inkscape:connector-curvature="0" />
      <path
         id="path3859-3"
         style="fill:#72634d;fill-opacity:1;fill-rule:nonzero;stroke:none"
         d="m 304.05245,871.03525 -1.30827,0 -3.12123,-10.44844 c -0.42795,-1.43613 -0.73031,-1.73639 -1.96298,-1.81134 l 0,-0.55465 5.58717,0 0,0.55465 c -1.20768,0.0477 -1.68679,0.30143 -1.68679,0.93125 0,0.20054 0.0762,0.5796 0.22792,1.1061 l 2.26418,7.90641 3.32532,-10.16977 1.03092,0 3.19798,10.16977 2.18917,-7.40107 c 0.20293,-0.62983 0.30235,-1.11017 0.30235,-1.46113 0,-0.42923 -0.25176,-0.75519 -0.70588,-0.90666 -0.30119,-0.1 -0.47853,-0.12722 -1.13325,-0.1749 l 0,-0.55465 4.93537,0 0,0.55465 c -1.38444,0.075 -1.86181,0.55418 -2.46652,2.49094 l -3.04681,9.76884 -1.28327,0 -3.14565,-9.66825 -3.19973,9.66825"
         inkscape:connector-curvature="0" />
      <path
         id="path3861-7"
         style="fill:#72634d;fill-opacity:1;fill-rule:nonzero;stroke:none"
         d="m 325.52722,863.91085 c -2.23918,0.19991 -3.22299,0.40318 -4.22832,0.90468 -1.10941,0.53238 -1.68854,1.53812 -1.68854,2.87139 0,1.5858 0.85648,2.66716 2.11648,2.66716 1.28327,0 2.59328,-0.75429 3.22125,-1.83772 0.40353,-0.70298 0.57913,-1.76069 0.57913,-3.42283 l 0,-1.18268 z m 3.65035,6.97358 c -0.98207,0.15082 -2.08741,0.2503 -2.59328,0.2503 -0.75414,0 -0.95765,-0.4027 -1.05707,-2.08803 -0.40237,0.45315 -0.72973,0.7282 -1.23152,1.08184 -1.11057,0.8045 -1.99147,1.08228 -3.27416,1.08228 -1.1065,0 -1.93914,-0.25279 -2.56827,-0.77906 -0.68088,-0.6053 -1.10708,-1.61264 -1.10708,-2.66879 0,-1.9892 1.25884,-3.27404 3.70036,-3.82665 1.30826,-0.30072 2.6427,-0.4797 4.48067,-0.60529 l 0,-1.58515 c 0,-1.15907 -0.1006,-1.7621 -0.35295,-2.28947 -0.32619,-0.65867 -1.03091,-0.9826 -2.06241,-0.9826 -1.66353,0 -2.51827,0.75478 -2.62002,2.31517 -0.025,0.52918 -0.0744,0.70408 -0.27677,0.85671 -0.17327,0.12722 -0.50237,0.19874 -0.88206,0.19874 -0.85357,0 -1.23094,-0.22601 -1.23094,-0.75269 0,-0.90922 0.65472,-1.8143 1.71122,-2.41733 0.9559,-0.52923 2.19033,-0.80519 3.67477,-0.80519 1.61121,0 2.77062,0.37591 3.37533,1.10656 0.50121,0.62646 0.72914,1.46002 0.72914,2.84551 0,0.0749 0,0.0749 -0.0512,2.54269 l -0.0232,2.39169 -0.0273,1.15656 c 0,1.05842 0.12618,1.9642 0.27968,2.16793 0.14885,0.19943 0.45121,0.27392 1.40711,0.27392 l 0,0.53035"
         inkscape:connector-curvature="0" />
      <path
         id="path3863"
         style="fill:#72634d;fill-opacity:1;fill-rule:nonzero;stroke:none"
         d="m 197.84571,843.72243 0.51516,0 0.24619,-0.45196 c 1.72889,-3.18322 4.79791,-3.84985 7.06807,-3.84985 2.26947,0 5.33819,0.66663 7.06778,3.84985 l 0.24625,0.45196 c 0,0 2.279,0 3.28427,0 0,0.60349 0,2.11457 0,2.11457 0,0 2.88929,0 3.94387,0 0,1.57969 0,25.90802 0,27.48953 -1.58852,0 -27.49586,0 -29.08417,0 0,-1.58151 0,-25.90984 0,-27.48953 1.05456,0 3.94319,0 3.94319,0 0,0 0,-1.51108 0,-2.11457 1.00485,0 2.76939,0 2.76939,0 z m -0.47377,-1.73185 c -0.71658,0 -4.02771,0 -4.02771,0 0,0 0,1.51044 0,2.11346 -1.05479,0 -3.94365,0 -3.94365,0 l 0,30.95435 32.54974,0 0,-30.95435 c 0,0 -2.88976,0 -3.9448,0 0,-0.60302 0,-2.11346 0,-2.11346 0,0 -3.31155,0 -4.02766,0 -1.71529,-2.76987 -4.63191,-4.30228 -8.30273,-4.30228 -3.67135,0 -6.58837,1.53241 -8.30319,4.30228"
         inkscape:connector-curvature="0" />
      <path
         id="path3865"
         style="fill:#72634d;fill-opacity:1;fill-rule:nonzero;stroke:none"
         d="m 192.93721,868.68783 25.47352,0 0,0.95284 -25.47352,0 0,-0.95284"
         inkscape:connector-curvature="0" />
      <path
         id="path3867"
         style="fill:#72634d;fill-opacity:1;fill-rule:nonzero;stroke:none"
         d="m 192.19087,870.35408 26.96982,0 0,0.95259 -26.96982,0 0,-0.95259"
         inkscape:connector-curvature="0" />
      <path
         id="path3869"
         style="fill:#72634d;fill-opacity:1;fill-rule:nonzero;stroke:none"
         d="m 205.38208,847.78236 -12.73718,4.5794 0.58554,1.62923 c 0,0 11.88522,-4.27187 12.44469,-4.47264 0.55918,0.20077 12.44395,4.47264 12.44395,4.47264 l 0.58598,-1.62923 -13.02993,-4.68499 -0.29305,0.10559"
         inkscape:connector-curvature="0" />
      <path
         id="path3871"
         style="fill:#72634d;fill-opacity:1;fill-rule:nonzero;stroke:none"
         d="m 214.43779,866.00774 -2.72219,0 -0.23619,-9.6989 c 0.0722,0.037 0.15264,0.0595 0.23869,0.0595 0.29823,0 0.54151,-0.24119 0.54151,-0.53942 0,-0.14582 -0.0593,-0.27869 -0.15403,-0.37521 l 1.94403,0 c -0.094,0.0965 -0.1524,0.22939 -0.1524,0.37521 0,0.29823 0.24212,0.53942 0.53854,0.53942 0.0856,0 0.16601,-0.022 0.23846,-0.0579 l -0.23642,9.69734 z m -4.93671,0 -2.71962,0 -0.23648,-9.6921 c 0.0698,0.033 0.14699,0.0527 0.22898,0.0527 0.29753,0 0.53918,-0.24119 0.53918,-0.53942 0,-0.14582 -0.0588,-0.27869 -0.15304,-0.37521 l 1.94647,0 c -0.0945,0.0965 -0.15333,0.22939 -0.15333,0.37521 0,0.29823 0.24281,0.53942 0.53831,0.53942 0.0895,0 0.1724,-0.0238 0.24648,-0.0617 l -0.23695,9.70117 z m -4.93094,0 -2.73009,0 -0.23602,-9.6996 c 0.0736,0.0377 0.1556,0.0602 0.24346,0.0602 0.29642,0 0.53854,-0.24119 0.53854,-0.53942 0,-0.14582 -0.0586,-0.27869 -0.15263,-0.37521 l 1.9456,0 c -0.0943,0.0965 -0.1531,0.22939 -0.1531,0.37521 0,0.29823 0.24171,0.53942 0.5397,0.53942 0.087,0 0.16758,-0.0224 0.24096,-0.0602 l -0.23642,9.6996 z m -4.94147,0 -2.72643,0 -0.23648,-9.70071 c 0.0741,0.0381 0.1563,0.0613 0.24439,0.0613 0.29759,0 0.53947,-0.24119 0.53947,-0.53942 0,-0.14582 -0.0588,-0.27869 -0.1531,-0.37521 l 1.93444,0 c -0.0943,0.0965 -0.15351,0.22939 -0.15351,0.37521 0,0.29823 0.24369,0.53942 0.54081,0.53942 0.0886,0 0.17054,-0.0231 0.24502,-0.0617 l -0.23461,9.70117 z m 17.02067,0 -0.23782,-9.70571 c 0.0752,0.0409 0.15967,0.0663 0.25096,0.0663 0.29846,0 0.54058,-0.24119 0.54058,-0.53942 0,-0.14582 -0.0588,-0.27869 -0.1531,-0.37521 l 0.43545,0 0,-0.95393 -23.62037,0 0,0.95393 0.43132,0 c -0.0945,0.0965 -0.15354,0.22939 -0.15354,0.37521 0,0.29823 0.2419,0.53942 0.54284,0.53942 0.0865,0 0.16717,-0.0224 0.24007,-0.0602 l -0.23349,9.6996 -0.89579,0 0,1.5876 23.75187,0 0,-1.5876 -0.89898,0"
         inkscape:connector-curvature="0" />
      <text
         sodipodi:linespacing="125%"
         id="text2985-3"
         y="801.05481"
         x="259.14023"
         style="font-size:30px;font-style:normal;font-variant:normal;font-weight:normal;font-stretch:normal;text-align:center;line-height:125%;letter-spacing:0px;word-spacing:0px;writing-mode:lr-tb;text-anchor:middle;fill:#72634d;fill-opacity:1;stroke:none;font-family:Myriad Pro;-inkscape-font-specification:Myriad Pro"
         xml:space="preserve"><tspan
           style="font-size:30px;font-style:normal;font-variant:normal;font-weight:600;font-stretch:normal;text-align:center;line-height:125%;writing-mode:lr-tb;text-anchor:middle;fill:#72634d;fill-opacity:1;font-family:Myriad Pro;-inkscape-font-specification:Myriad Pro Semi-Bold"
           id="tspan2991-1"
           y="801.05481"
           x="259.14023"
           sodipodi:role="line">BioInspired</tspan></text>
      <text
         sodipodi:linespacing="125%"
         id="text2993-7"
         y="828.2948"
         x="185.01285"
         style="font-size:30px;font-style:normal;font-variant:normal;font-weight:normal;font-stretch:normal;text-align:start;line-height:125%;letter-spacing:4.5px;word-spacing:0px;writing-mode:lr-tb;text-anchor:start;fill:#72634d;fill-opacity:1;stroke:none;font-family:Myriad Pro;-inkscape-font-specification:Myriad Pro"
         xml:space="preserve"><tspan
           style="font-size:30px;font-style:normal;font-variant:normal;font-weight:600;font-stretch:normal;text-align:start;line-height:125%;letter-spacing:4.94999981px;writing-mode:lr-tb;text-anchor:start;fill:#72634d;fill-opacity:1;font-family:Myriad Pro;-inkscape-font-specification:Myriad Pro Semi-Bold"
           y="828.2948"
           x="185.01285"
           id="tspan2995-3"
           sodipodi:role="line">Robotics</tspan></text>
    </g>
    <g
       id="g4487"
       transform="translate(607.25187,215.29878)">
      <text
         sodipodi:linespacing="125%"
         id="text2985-1"
         y="524.68939"
         x="258.48953"
         style="font-size:33.93645096px;font-style:normal;font-variant:normal;font-weight:600;font-stretch:normal;text-align:center;line-height:125%;letter-spacing:0px;word-spacing:0px;writing-mode:lr-tb;text-anchor:middle;fill:#72634d;fill-opacity:1;stroke:none;font-family:Myriad Pro;-inkscape-font-specification:Myriad Pro Semi-Bold"
         xml:space="preserve"><tspan
           style="font-size:33.93645096px;font-style:normal;font-variant:normal;font-weight:600;font-stretch:normal;text-align:center;line-height:125%;writing-mode:lr-tb;text-anchor:middle;fill:#72634d;fill-opacity:1;font-family:Myriad Pro;-inkscape-font-specification:Myriad Pro Semi-Bold"
           id="tspan2991-0"
           y="524.68939"
           x="258.48953"
           sodipodi:role="line">BIOINSPIRED</tspan></text>
      <text
         sodipodi:linespacing="125%"
         id="text2993-4"
         y="550.60559"
         x="163.5639"
         style="font-size:33.93645096px;font-style:normal;font-variant:normal;font-weight:600;font-stretch:normal;text-align:start;line-height:125%;letter-spacing:5.09046745px;word-spacing:0px;writing-mode:lr-tb;text-anchor:start;fill:#72634d;fill-opacity:1;stroke:none;font-family:Myriad Pro;-inkscape-font-specification:Myriad Pro Semi-Bold"
         xml:space="preserve"><tspan
           style="font-size:33.93645096px;font-style:normal;font-variant:normal;font-weight:600;font-stretch:normal;text-align:start;line-height:125%;letter-spacing:5.71263599px;writing-mode:lr-tb;text-anchor:start;fill:#72634d;fill-opacity:1;font-family:Myriad Pro;-inkscape-font-specification:Myriad Pro Semi-Bold"
           y="550.60559"
           x="163.5639"
           id="tspan2995-9"
           sodipodi:role="line">ROBOTICS</tspan></text>
      <path
         inkscape:connector-curvature="0"
         d="m 184.68489,491.00935 c -0.143,-1.16191 -0.23949,-2.61079 -0.23949,-4.98111 -1.88904,3.28695 -5.02944,5.22113 -8.60991,5.22113 -3.09038,0 -5.46334,-1.49627 -6.42825,-4.05921 -0.48617,-1.3076 -0.67791,-3.29135 -0.67791,-7.49496 l 0,-7.98191 c 0,-2.51079 -0.19527,-3.52838 -0.72489,-3.96535 -0.29222,-0.28744 -0.72794,-0.38304 -1.64325,-0.43358 -0.63361,0 -0.63361,0 -0.87319,0 l 0,-1.06713 7.49492,-0.48393 c -0.23781,4.49847 -0.2896,5.66119 -0.2896,9.00086 l 0,4.20528 c 0,4.88329 0.0992,6.18824 0.67793,7.87801 0.58096,1.78938 1.93242,2.71478 3.91876,2.71478 2.66042,0 5.02764,-1.74549 6.28439,-4.69545 0.72306,-1.64547 0.871,-2.70602 0.871,-5.70514 l 0,-7.44835 c 0,-2.55988 -0.14794,-3.48008 -0.72531,-3.91705 -0.29183,-0.28879 -0.77362,-0.43134 -1.64371,-0.48188 l -0.87494,0 0,-1.06713 7.49923,-0.48393 c -0.14737,3.63005 -0.24263,6.82133 -0.24263,9.00086 l 0,9.13465 c 0,4.83894 0.43359,5.71081 2.94864,5.71081 l 0.34273,0 0,1.06011 -7.06452,0.33962"
         style="fill:#72634d;fill-opacity:1;fill-rule:nonzero;stroke:none"
         id="path4053-2" />
      <path
         inkscape:connector-curvature="0"
         d="m 207.41241,484.72328 c 1.93634,3.43395 4.98023,5.2694 8.85157,5.2694 3.86839,0 6.91354,-1.83545 8.84909,-5.2694 1.73751,-3.14523 2.60683,-6.91836 2.60683,-11.60374 0,-4.69323 -0.86932,-8.46414 -2.60683,-11.60813 -1.93555,-3.47997 -4.9807,-5.27072 -8.84909,-5.27072 -3.87134,0 -6.91523,1.83681 -8.85157,5.27072 -1.73987,3.19218 -2.61133,7.007 -2.61133,11.60813 0,4.59192 0.87146,8.36287 2.61133,11.60374 z m -3.48143,-24.28024 c 2.9017,-3.62352 7.10709,-5.50942 12.333,-5.50942 5.27342,0 9.37906,1.83625 12.32693,5.50942 2.66254,3.38696 4.01442,7.59707 4.01442,12.6765 0,5.08078 -1.35188,9.33215 -4.01442,12.61691 -2.99483,3.72574 -7.05351,5.5625 -12.32693,5.5625 -5.22591,0 -9.48309,-1.93636 -12.333,-5.5625 -2.65985,-3.38217 -4.01488,-7.59151 -4.01488,-12.61691 0,-5.07943 1.30718,-9.2391 4.01488,-12.6765"
         style="fill:#72634d;fill-opacity:1;fill-rule:nonzero;stroke:none"
         id="path4055-6" />
      <path
         inkscape:connector-curvature="0"
         d="m 243.58116,483.80535 c 0,2.85123 0.14479,4.1123 0.62747,4.78628 0.48616,0.67881 1.25933,1.01799 2.37118,1.01799 1.06543,0 1.98418,-0.24703 3.04648,-0.87187 l 0.43618,1.25493 c -1.59722,0.82448 -3.14344,1.20842 -4.88241,1.20842 -2.37251,0 -4.16147,-0.82009 -4.98238,-2.36681 -0.5331,-0.96709 -0.67745,-2.02983 -0.67745,-5.61298 l 0,-15.66208 -3.04525,0 0,-1.11453 c 2.85215,-0.24354 4.30233,-2.12854 5.02853,-6.67564 l 2.22244,-0.62668 c -0.0962,2.0781 -0.14479,3.91446 -0.14479,7.10485 l 5.80295,0 0,1.312 -5.80295,0 0,16.24612"
         style="fill:#72634d;fill-opacity:1;fill-rule:nonzero;stroke:none"
         id="path4057-0" />
      <path
         inkscape:connector-curvature="0"
         d="m 259.52667,483.80535 c 0,2.85123 0.14345,4.1123 0.62523,4.78628 0.48447,0.67881 1.26023,1.01799 2.36948,1.01799 1.06712,0 1.97981,-0.24703 3.04693,-0.87187 l 0.43619,1.25493 c -1.59632,0.82448 -3.14478,1.20842 -4.8842,1.20842 -2.36768,0 -4.15789,-0.82009 -4.98059,-2.36681 -0.53008,-0.96709 -0.67835,-2.02983 -0.67835,-5.61298 l 0,-15.66208 -3.04739,0 0,-1.11453 c 2.85429,-0.24354 4.30749,-2.12854 5.03281,-6.67564 l 2.22334,-0.62668 c -0.0951,2.0781 -0.14345,3.91446 -0.14345,7.10485 l 5.79857,0 0,1.312 -5.79857,0 0,16.24612"
         style="fill:#72634d;fill-opacity:1;fill-rule:nonzero;stroke:none"
         id="path4059-2" />
      <path
         inkscape:connector-curvature="0"
         d="m 284.81452,477.177 c -4.30446,0.38619 -6.1916,0.77709 -8.12255,1.74638 -2.12673,1.01366 -3.24385,2.94428 -3.24385,5.51118 0,3.04387 1.64675,5.12767 4.06667,5.12767 2.46395,0 4.979,-1.45326 6.1843,-3.53399 0.77619,-1.35102 1.11543,-3.38524 1.11543,-6.57871 l 0,-2.27253 z m 7.01273,13.39532 c -1.88377,0.29311 -4.0169,0.48837 -4.98293,0.48837 -1.45018,0 -1.83996,-0.7749 -2.0298,-4.01797 -0.77282,0.87493 -1.40075,1.39972 -2.37127,2.08731 -2.12192,1.5397 -3.82033,2.07107 -6.2835,2.07107 -2.12898,0 -3.72304,-0.48179 -4.93148,-1.49626 -1.30886,-1.16366 -2.13123,-3.09784 -2.13123,-5.12899 0,-3.81921 2.41946,-6.28477 7.11236,-7.34965 2.51236,-0.57962 5.0746,-0.91885 8.60512,-1.16014 l 0,-3.043 c 0,-2.22559 -0.19096,-3.38787 -0.67735,-4.40456 -0.62679,-1.2536 -1.98149,-1.88377 -3.96523,-1.88377 -3.19027,0 -4.83714,1.45018 -5.02798,4.44938 -0.0491,1.01097 -0.1448,1.35357 -0.53177,1.64236 -0.34092,0.24039 -0.96974,0.38395 -1.69371,0.38395 -1.64326,0 -2.36688,-0.43 -2.36688,-1.44805 0,-1.73975 1.25325,-3.4822 3.28484,-4.6401 1.83984,-1.01895 4.20797,-1.5433 7.05891,-1.5433 3.09916,0 5.31992,0.72228 6.48029,2.12068 0.96715,1.20979 1.40411,2.8061 1.40411,5.46595 0,0.14614 0,0.14614 -0.0966,4.8851 l -0.0472,4.5923 -0.0517,2.22378 c 0,2.02894 0.24376,3.77005 0.53581,4.16321 0.28869,0.38525 0.86943,0.53224 2.70715,0.53224 l 0,1.01009"
         style="fill:#72634d;fill-opacity:1;fill-rule:nonzero;stroke:none"
         id="path4061-5" />
      <path
         inkscape:connector-curvature="0"
         d="m 303.91391,490.86543 -2.50944,0 -6.00065,-20.06796 c -0.82337,-2.75736 -1.39963,-3.33697 -3.77315,-3.48311 l 0,-1.06713 10.7387,0 0,1.06713 c -2.32297,0.0943 -3.2407,0.58321 -3.2407,1.79076 0,0.38169 0.1449,1.11273 0.43247,2.12369 l 4.35277,15.18819 6.38256,-19.54095 1.98486,0 6.14218,19.54095 4.20787,-14.22192 c 0.38528,-1.20631 0.58074,-2.12775 0.58074,-2.80173 0,-0.82315 -0.48639,-1.45108 -1.35245,-1.74414 -0.58636,-0.18871 -0.92447,-0.2405 -2.17919,-0.33485 l 0,-1.06713 9.47948,0 0,1.06713 c -2.66333,0.14614 -3.57994,1.06713 -4.73918,4.78983 l -5.85574,18.76124 -2.46451,0 -6.03995,-18.56948 -6.14667,18.56948"
         style="fill:#72634d;fill-opacity:1;fill-rule:nonzero;stroke:none"
         id="path4063-1" />
      <path
         inkscape:connector-curvature="0"
         d="m 345.16243,477.177 c -4.30111,0.38619 -6.19048,0.77709 -8.12255,1.74638 -2.12752,1.01366 -3.23959,2.94428 -3.23959,5.51118 0,3.04387 1.64676,5.12767 4.05959,5.12767 2.46788,0 4.98294,-1.45326 6.19161,-3.53399 0.77058,-1.35102 1.11094,-3.38524 1.11094,-6.57871 l 0,-2.27253 z m 7.01385,13.39532 c -1.88601,0.29311 -4.01578,0.48837 -4.97956,0.48837 -1.45355,0 -1.84221,-0.7749 -2.03429,-4.01797 -0.77507,0.87493 -1.40188,1.39972 -2.36904,2.08731 -2.12527,1.5397 -3.82144,2.07107 -6.2882,2.07107 -2.12753,0 -3.72036,-0.48179 -4.92901,-1.49626 -1.3064,-1.16366 -2.12752,-3.09784 -2.12752,-5.12899 0,-3.81921 2.41844,-6.28477 7.1082,-7.34965 2.51056,-0.57962 5.07842,-0.91885 8.60557,-1.16014 l 0,-3.043 c 0,-2.22559 -0.19658,-3.38787 -0.67623,-4.40456 -0.62679,-1.2536 -1.98261,-1.88377 -3.96747,-1.88377 -3.19017,0 -4.83242,1.45018 -5.02338,4.44938 -0.0483,1.01097 -0.1494,1.35357 -0.53357,1.64236 -0.33923,0.24039 -0.96716,0.38395 -1.69056,0.38395 -1.64675,0 -2.37127,-0.43 -2.37127,-1.44805 0,-1.73975 1.2536,-3.4822 3.28901,-4.6401 1.83434,-1.01895 4.20336,-1.5433 7.05542,-1.5433 3.09691,0 5.32216,0.72228 6.48141,2.12068 0.96491,1.20979 1.40524,2.8061 1.40524,5.46595 0,0.14614 0,0.14614 -0.0989,4.8851 l -0.0483,4.5923 -0.0494,2.22378 c 0,2.02894 0.23925,3.77005 0.53131,4.16321 0.29543,0.38525 0.87505,0.53224 2.71052,0.53224 l 0,1.01009"
         style="fill:#72634d;fill-opacity:1;fill-rule:nonzero;stroke:none"
         id="path4065-3" />
      <path
         inkscape:connector-curvature="0"
         d="m 237.83741,349.45599 1.38268,0 0.66072,-1.21316 c 4.63931,-8.54042 12.87274,-10.33095 18.96268,-10.33095 6.09477,0 14.33032,1.79053 18.96302,10.3287 l 0.6614,1.21541 c 0,0 6.12307,0 8.82235,0 0,1.62204 0,5.67826 0,5.67826 0,0 7.75074,0 10.58031,0 0,4.24267 0,69.51904 0,73.76082 -4.26177,0 -73.7834,0 -78.0471,0 0,-4.24178 0,-69.51815 0,-73.76082 2.82925,0 10.57953,0 10.57953,0 0,0 0,-4.05622 0,-5.67826 2.69906,0 7.43441,0 7.43441,0 z m -1.32683,-4.64708 c -1.98295,0 -10.75476,0 -10.75476,0 0,0 0,4.0551 0,5.67714 -2.83104,0 -10.57998,0 -10.57998,0 l 0,83.05711 87.34293,0 0,-83.05711 c 0,0 -7.75185,0 -10.58144,0 0,-1.62204 0,-5.67714 0,-5.67714 0,0 -8.77631,0 -10.76004,0 -4.59282,-7.45418 -12.46375,-11.54522 -22.3338,-11.54522 -9.86478,0 -17.73492,4.09104 -22.33291,11.54522"
         style="fill:#72634d;fill-opacity:1;fill-rule:nonzero;stroke:none"
         id="path4067-4" />
      <path
         inkscape:connector-curvature="0"
         d="m 224.66465,416.44448 68.35441,0 0,2.55729 -68.35441,0 0,-2.55729"
         style="fill:#72634d;fill-opacity:1;fill-rule:nonzero;stroke:none"
         id="path4069-7" />
      <path
         inkscape:connector-curvature="0"
         d="m 222.66631,420.91788 72.3702,0 0,2.55595 -72.3702,0 0,-2.55595"
         style="fill:#72634d;fill-opacity:1;fill-rule:nonzero;stroke:none"
         id="path4071-8" />
      <path
         inkscape:connector-curvature="0"
         d="m 258.05538,360.35082 -34.17625,12.28885 1.57183,4.37412 c 0,0 31.89057,-11.4666 33.39253,-12.00578 1.50016,0.53918 33.39601,12.00578 33.39601,12.00578 l 1.57036,-4.37412 -34.96637,-12.57191 -0.78811,0.28306"
         style="fill:#72634d;fill-opacity:1;fill-rule:nonzero;stroke:none"
         id="path4073-1" />
      <path
         inkscape:connector-curvature="0"
         d="m 282.35787,409.2519 -7.30467,0 -0.63185,-26.01921 c 0.19388,0.0957 0.41022,0.15489 0.6406,0.15489 0.80294,0 1.45591,-0.64285 1.45591,-1.44579 0,-0.3927 -0.15928,-0.74721 -0.41596,-1.01141 l 5.22142,0 c -0.25387,0.2642 -0.4145,0.61871 -0.4145,1.01141 0,0.80294 0.65263,1.44579 1.44905,1.44579 0.22803,0 0.44146,-0.057 0.63354,-0.15142 l -0.63354,26.01574 z m -13.24151,0 -7.30445,0 -0.63276,-26.00248 c 0.18916,0.0864 0.3945,0.13816 0.61433,0.13816 0.79856,0 1.44973,-0.64285 1.44973,-1.44579 0,-0.3927 -0.15883,-0.74721 -0.41382,-1.01141 l 5.22557,0 c -0.25499,0.2642 -0.41247,0.61871 -0.41247,1.01141 0,0.80294 0.64679,1.44579 1.44668,1.44579 0.23915,0 0.46291,-0.0636 0.66207,-0.1659 l -0.63488,26.03022 z m -13.23466,0 -7.32648,0 -0.6323,-26.02224 c 0.19703,0.0987 0.41473,0.15792 0.6477,0.15792 0.80292,0 1.45197,-0.64285 1.45197,-1.44579 0,-0.3927 -0.15929,-0.74721 -0.41473,-1.01141 l 5.22333,0 c -0.25364,0.2642 -0.41203,0.61871 -0.41203,1.01141 0,0.80294 0.64938,1.44579 1.44535,1.44579 0.23308,0 0.45201,-0.0592 0.64814,-0.15792 l -0.63095,26.02224 z m -13.25758,0 -7.32197,0 -0.63276,-26.02663 c 0.19961,0.1009 0.42168,0.16231 0.65903,0.16231 0.79732,0 1.44366,-0.64285 1.44366,-1.44579 0,-0.3927 -0.15669,-0.74721 -0.41112,-1.01141 l 5.19602,0 c -0.25318,0.2642 -0.40887,0.61871 -0.40887,1.01141 0,0.80294 0.64713,1.44579 1.44748,1.44579 0.23746,0 0.45773,-0.0614 0.65386,-0.16231 l -0.62533,26.02663 z m 45.667,0 -0.63803,-26.03978 c 0.20331,0.10826 0.43246,0.17546 0.67847,0.17546 0.79978,0 1.44568,-0.64285 1.44568,-1.44579 0,-0.3927 -0.15502,-0.74721 -0.40888,-1.01141 l 1.16822,0 0,-2.55628 -63.38406,0 0,2.55628 1.16543,0 c -0.25578,0.2642 -0.41248,0.61871 -0.41248,1.01141 0,0.80294 0.6468,1.44579 1.4458,1.44579 0.2361,0 0.45593,-0.0592 0.65297,-0.16231 l -0.63141,26.02663 -2.39712,0 0,4.2628 63.73162,0 0,-4.2628 -2.41621,0"
         style="fill:#72634d;fill-opacity:1;fill-rule:nonzero;stroke:none"
         id="path4075-5" />
    </g>
    <g
       id="g4537"
       transform="translate(-384.40361,69.185428)">
      <text
         sodipodi:linespacing="125%"
         id="text2985-1-4"
         y="391.43158"
         x="525.87817"
         style="font-size:30px;font-style:normal;font-variant:normal;font-weight:600;font-stretch:normal;text-align:center;line-height:125%;letter-spacing:0px;word-spacing:0px;writing-mode:lr-tb;text-anchor:middle;fill:#72634d;fill-opacity:1;stroke:none;font-family:Myriad Pro;-inkscape-font-specification:Myriad Pro Semi-Bold"
         xml:space="preserve"><tspan
           style="font-size:30px;font-style:normal;font-variant:normal;font-weight:600;font-stretch:normal;text-align:center;line-height:125%;writing-mode:lr-tb;text-anchor:middle;fill:#72634d;fill-opacity:1;font-family:Myriad Pro;-inkscape-font-specification:Myriad Pro Semi-Bold"
           id="tspan2991-0-3"
           y="391.43158"
           x="525.87817"
           sodipodi:role="line">BIOINSPIRED</tspan></text>
      <text
         sodipodi:linespacing="125%"
         id="text2993-4-6"
         y="414.34155"
         x="441.96347"
         style="font-size:30px;font-style:normal;font-variant:normal;font-weight:600;font-stretch:normal;text-align:start;line-height:125%;letter-spacing:4.5px;word-spacing:0px;writing-mode:lr-tb;text-anchor:start;fill:#72634d;fill-opacity:1;stroke:none;font-family:Myriad Pro;-inkscape-font-specification:Myriad Pro Semi-Bold"
         xml:space="preserve"><tspan
           style="font-size:30px;font-style:normal;font-variant:normal;font-weight:600;font-stretch:normal;text-align:start;line-height:125%;letter-spacing:5.05000019px;writing-mode:lr-tb;text-anchor:start;fill:#72634d;fill-opacity:1;font-family:Myriad Pro;-inkscape-font-specification:Myriad Pro Semi-Bold"
           y="414.34155"
           x="441.96347"
           id="tspan2995-9-3"
           sodipodi:role="line">ROBOTICS</tspan></text>
      <path
         inkscape:connector-curvature="0"
         d="m 460.63453,361.65822 c -0.12641,-1.02714 -0.21171,-2.30795 -0.21171,-4.40333 -1.66992,2.90568 -4.44605,4.61551 -7.61121,4.61551 -2.73191,0 -4.82962,-1.32271 -5.6826,-3.58837 -0.42978,-1.15592 -0.59928,-2.90957 -0.59928,-6.62558 l 0,-7.05605 c 0,-2.21955 -0.17262,-3.11911 -0.64081,-3.50539 -0.25832,-0.2541 -0.6435,-0.33861 -1.45264,-0.38329 -0.56011,0 -0.56011,0 -0.7719,0 l 0,-0.94335 6.62555,-0.42779 c -0.21023,3.97667 -0.25601,5.00452 -0.25601,7.9568 l 0,3.71749 c 0,4.31686 0.0877,5.47044 0.59929,6.96421 0.51357,1.58182 1.70827,2.39988 3.46421,2.39988 2.35182,0 4.44446,-1.54303 5.55543,-4.15081 0.63919,-1.4546 0.76997,-2.39213 0.76997,-5.04337 l 0,-6.58438 c 0,-2.26295 -0.13078,-3.07641 -0.64118,-3.46269 -0.25798,-0.2553 -0.68388,-0.38131 -1.45305,-0.42599 l -0.77345,0 0,-0.94335 6.62936,-0.42779 c -0.13028,3.20898 -0.21449,6.03009 -0.21449,7.9568 l 0,8.07508 c 0,4.27765 0.3833,5.04839 2.60662,5.04839 l 0.30297,0 0,0.93714 -6.24507,0.30023"
         style="fill:#72634d;fill-opacity:1;fill-rule:nonzero;stroke:none"
         id="path4053-2-6" />
      <path
         inkscape:connector-curvature="0"
         d="m 480.72578,356.1013 c 1.71173,3.03563 4.40255,4.65818 7.82483,4.65818 3.41968,0 6.11161,-1.62255 7.82264,-4.65818 1.53597,-2.7804 2.30445,-6.11587 2.30445,-10.25777 0,-4.14884 -0.76848,-7.48234 -2.30445,-10.26165 -1.71103,-3.07631 -4.40296,-4.65934 -7.82264,-4.65934 -3.42228,0 -6.1131,1.62375 -7.82483,4.65934 -1.53806,2.82191 -2.30843,6.19423 -2.30843,10.26165 0,4.05928 0.77037,7.39282 2.30843,10.25777 z m -3.07761,-21.46386 c 2.56512,-3.20321 6.28271,-4.87036 10.90244,-4.87036 4.66173,0 8.29114,1.62326 10.89707,4.87036 2.3537,2.99409 3.54877,6.71585 3.54877,11.20609 0,4.49144 -1.19507,8.24967 -3.54877,11.15342 -2.64744,3.29357 -6.23534,4.91728 -10.89707,4.91728 -4.61973,0 -8.3831,-1.71176 -10.90244,-4.91728 -2.35132,-2.98986 -3.54917,-6.71094 -3.54917,-11.15342 0,-4.49024 1.15555,-8.16741 3.54917,-11.20609"
         style="fill:#72634d;fill-opacity:1;fill-rule:nonzero;stroke:none"
         id="path4055-6-6" />
      <path
         inkscape:connector-curvature="0"
         d="m 512.69914,355.28984 c 0,2.52051 0.128,3.6353 0.55469,4.2311 0.42977,0.60007 1.11325,0.89991 2.09613,0.89991 0.94185,0 1.75403,-0.21838 2.69311,-0.77074 l 0.38558,1.10937 c -1.41195,0.72884 -2.77881,1.06825 -4.31607,1.06825 -2.09731,0 -3.67876,-0.72497 -4.40445,-2.09228 -0.47127,-0.85491 -0.59887,-1.79438 -0.59887,-4.9619 l 0,-13.84536 -2.69202,0 0,-0.98525 c 2.52132,-0.21529 3.80328,-1.88164 4.44525,-5.9013 l 1.96465,-0.55399 c -0.085,1.83705 -0.128,3.4604 -0.128,6.28072 l 5.12984,0 0,1.15982 -5.12984,0 0,14.36165"
         style="fill:#72634d;fill-opacity:1;fill-rule:nonzero;stroke:none"
         id="path4057-0-6" />
      <path
         inkscape:connector-curvature="0"
         d="m 526.79506,355.28984 c 0,2.52051 0.12681,3.6353 0.5527,4.2311 0.42828,0.60007 1.11405,0.89991 2.09464,0.89991 0.94334,0 1.75016,-0.21838 2.6935,-0.77074 l 0.38559,1.10937 c -1.41115,0.72884 -2.78,1.06825 -4.31766,1.06825 -2.09304,0 -3.67559,-0.72497 -4.40286,-2.09228 -0.4686,-0.85491 -0.59967,-1.79438 -0.59967,-4.9619 l 0,-13.84536 -2.69391,0 0,-0.98525 c 2.52321,-0.21529 3.80785,-1.88164 4.44903,-5.9013 l 1.96545,-0.55399 c -0.0841,1.83705 -0.12681,3.4604 -0.12681,6.28072 l 5.12596,0 0,1.15982 -5.12596,0 0,14.36165"
         style="fill:#72634d;fill-opacity:1;fill-rule:nonzero;stroke:none"
         id="path4059-2-0" />
      <path
         inkscape:connector-curvature="0"
         d="m 549.14965,349.43035 c -3.80517,0.34139 -5.47341,0.68695 -7.18038,1.54381 -1.88004,0.89608 -2.86758,2.60276 -2.86758,4.87191 0,2.6908 1.45574,4.53289 3.59496,4.53289 2.17814,0 4.40146,-1.28469 5.46695,-3.12407 0.68616,-1.19431 0.98605,-2.99257 0.98605,-5.81561 l 0,-2.00893 z m 6.19929,11.84153 c -1.66526,0.25911 -3.55096,0.43172 -4.40494,0.43172 -1.28196,0 -1.62653,-0.68501 -1.79435,-3.5519 -0.68318,0.77344 -1.23827,1.23736 -2.09622,1.84519 -1.87578,1.3611 -3.37719,1.83084 -5.55464,1.83084 -1.88203,0 -3.29119,-0.42591 -4.35946,-1.32271 -1.15704,-1.02868 -1.88402,-2.7385 -1.88402,-4.53405 0,-3.3762 2.13882,-5.55577 6.28737,-6.49713 2.22094,-0.51239 4.48597,-0.81227 7.60697,-1.02557 l 0,-2.69003 c 0,-1.96743 -0.16881,-2.99489 -0.59878,-3.89365 -0.55409,-1.10819 -1.75165,-1.66526 -3.50529,-1.66526 -2.82021,0 -4.27605,1.28196 -4.44476,3.93327 -0.0434,0.8937 -0.128,1.19656 -0.47008,1.45186 -0.30138,0.2125 -0.85726,0.33941 -1.49725,0.33941 -1.45265,0 -2.09234,-0.38012 -2.09234,-1.28008 0,-1.53795 1.10788,-3.07829 2.90382,-4.10188 1.62643,-0.90075 3.71987,-1.36428 6.24011,-1.36428 2.73968,0 4.70284,0.6385 5.72861,1.87469 0.85497,1.06946 1.24124,2.48061 1.24124,4.83193 0,0.12919 0,0.12919 -0.0854,4.31845 l -0.0417,4.05962 -0.0457,1.96583 c 0,1.7936 0.21548,3.33275 0.47366,3.6803 0.2552,0.34057 0.76858,0.47051 2.39313,0.47051 l 0,0.89292"
         style="fill:#72634d;fill-opacity:1;fill-rule:nonzero;stroke:none"
         id="path4061-5-5" />
      <path
         inkscape:connector-curvature="0"
         d="m 566.03361,361.53099 -2.21836,0 -5.3046,-17.74018 c -0.72787,-2.43752 -1.23728,-2.9499 -3.33549,-3.07909 l 0,-0.94335 9.49307,0 0,0.94335 c -2.05352,0.0834 -2.8648,0.51556 -2.8648,1.58304 0,0.33742 0.1281,0.98366 0.38231,1.87736 l 3.84787,13.42644 5.64222,-17.27431 1.75462,0 5.42972,17.27431 3.71978,-12.57226 c 0.34059,-1.06638 0.51338,-1.88094 0.51338,-2.47674 0,-0.72767 -0.42997,-1.28276 -1.19557,-1.54183 -0.51835,-0.16682 -0.81724,-0.2126 -1.92642,-0.29601 l 0,-0.94335 8.37991,0 0,0.94335 c -2.3544,0.12919 -3.16468,0.94335 -4.18946,4.23424 l -5.1765,16.58503 -2.17864,0 -5.33935,-16.41552 -5.43369,16.41552"
         style="fill:#72634d;fill-opacity:1;fill-rule:nonzero;stroke:none"
         id="path4063-1-1" />
      <path
         inkscape:connector-curvature="0"
         d="m 602.49752,349.43035 c -3.8022,0.34139 -5.47242,0.68695 -7.18038,1.54381 -1.88074,0.89608 -2.86381,2.60276 -2.86381,4.87191 0,2.6908 1.45574,4.53289 3.5887,4.53289 2.18162,0 4.40494,-1.28469 5.47341,-3.12407 0.6812,-1.19431 0.98208,-2.99257 0.98208,-5.81561 l 0,-2.00893 z m 6.20028,11.84153 c -1.66724,0.25911 -3.54997,0.43172 -4.40196,0.43172 -1.28494,0 -1.62852,-0.68501 -1.79832,-3.5519 -0.68517,0.77344 -1.23927,1.23736 -2.09424,1.84519 -1.87875,1.3611 -3.37818,1.83084 -5.55881,1.83084 -1.88074,0 -3.28881,-0.42591 -4.35727,-1.32271 -1.15486,-1.02868 -1.88074,-2.7385 -1.88074,-4.53405 0,-3.3762 2.13792,-5.55577 6.28369,-6.49713 2.21935,-0.51239 4.48935,-0.81227 7.60737,-1.02557 l 0,-2.69003 c 0,-1.96743 -0.17378,-2.99489 -0.59779,-3.89365 -0.55409,-1.10819 -1.75264,-1.66526 -3.50727,-1.66526 -2.82012,0 -4.27188,1.28196 -4.44069,3.93327 -0.0427,0.8937 -0.13207,1.19656 -0.47168,1.45186 -0.29988,0.2125 -0.85497,0.33941 -1.49446,0.33941 -1.45574,0 -2.09622,-0.38012 -2.09622,-1.28008 0,-1.53795 1.10819,-3.07829 2.9075,-4.10188 1.62157,-0.90075 3.7158,-1.36428 6.23703,-1.36428 2.73769,0 4.70482,0.6385 5.7296,1.87469 0.85299,1.06946 1.24224,2.48061 1.24224,4.83193 0,0.12919 0,0.12919 -0.0874,4.31845 l -0.0427,4.05962 -0.0437,1.96583 c 0,1.7936 0.2115,3.33275 0.46968,3.6803 0.26116,0.34057 0.77355,0.47051 2.39611,0.47051 l 0,0.89292"
         style="fill:#72634d;fill-opacity:1;fill-rule:nonzero;stroke:none"
         id="path4065-3-3" />
    </g>
    <g
       id="g4550"
       transform="translate(-1.5258789e-5,353.44713)">
      <text
         sodipodi:linespacing="125%"
         id="text2985-1-4-4"
         y="501.31787"
         x="525.66498"
         style="font-size:30px;font-style:normal;font-variant:normal;font-weight:600;font-stretch:normal;text-align:center;line-height:125%;letter-spacing:0px;word-spacing:0px;writing-mode:lr-tb;text-anchor:middle;fill:#72634d;fill-opacity:1;stroke:none;font-family:Myriad Pro;-inkscape-font-specification:Myriad Pro Semi-Bold"
         xml:space="preserve"><tspan
           style="font-size:30px;font-style:normal;font-variant:normal;font-weight:600;font-stretch:normal;text-align:center;line-height:125%;writing-mode:lr-tb;text-anchor:middle;fill:#72634d;fill-opacity:1;font-family:Myriad Pro;-inkscape-font-specification:Myriad Pro Semi-Bold"
           id="tspan2991-0-3-3"
           y="501.31787"
           x="525.66498"
           sodipodi:role="line">BIOINSPIRED</tspan></text>
      <text
         sodipodi:linespacing="125%"
         id="text2993-4-6-1"
         y="524.22791"
         x="441.75024"
         style="font-size:30px;font-style:normal;font-variant:normal;font-weight:600;font-stretch:normal;text-align:start;line-height:125%;letter-spacing:4.5px;word-spacing:0px;writing-mode:lr-tb;text-anchor:start;fill:#72634d;fill-opacity:1;stroke:none;font-family:Myriad Pro;-inkscape-font-specification:Myriad Pro Semi-Bold"
         xml:space="preserve"><tspan
           style="font-size:30px;font-style:normal;font-variant:normal;font-weight:600;font-stretch:normal;text-align:start;line-height:125%;letter-spacing:5.05000019px;writing-mode:lr-tb;text-anchor:start;fill:#72634d;fill-opacity:1;font-family:Myriad Pro;-inkscape-font-specification:Myriad Pro Semi-Bold"
           y="524.22791"
           x="441.75024"
           id="tspan2995-9-3-1"
           sodipodi:role="line">ROBOTICS</tspan></text>
      <path
         id="path3849-6-1"
         style="fill:#72634d;fill-opacity:1;fill-rule:nonzero;stroke:none"
         d="m 508.87171,564.8122 c -0.0745,-0.6024 -0.12443,-1.3594 -0.12443,-2.5927 -0.98347,1.7103 -2.61997,2.7217 -4.48125,2.7217 -1.61197,0 -2.84598,-0.7813 -3.34906,-2.1164 -0.25101,-0.6803 -0.35206,-1.7119 -0.35206,-3.9032 l 0,-4.1531 c 0,-1.3099 -0.10106,-1.8368 -0.37748,-2.0639 -0.15287,-0.1511 -0.37771,-0.2037 -0.85811,-0.226 -0.3259,0 -0.3259,0 -0.45313,0 l 0,-0.5547 3.90213,-0.2505 c -0.12426,2.339 -0.14879,2.9448 -0.14879,4.6819 l 0,2.1899 c 0,2.5421 0.0488,3.2226 0.35207,4.1031 0.30159,0.9313 1.00684,1.4089 2.03845,1.4089 1.38438,0 2.6184,-0.9062 3.2741,-2.4418 0.37591,-0.8545 0.45313,-1.4098 0.45313,-2.9698 l 0,-3.8771 c 0,-1.3343 -0.0772,-1.8129 -0.37934,-2.0385 -0.15217,-0.1515 -0.40313,-0.2291 -0.85625,-0.2514 l -0.45359,0 0,-0.5547 3.90323,-0.2505 c -0.0756,1.8868 -0.1249,3.5478 -0.1249,4.6819 l 0,4.7576 c 0,2.5189 0.22712,2.9709 1.53358,2.9709 l 0.17711,0 0,0.5524 -3.67541,0.176"
         inkscape:connector-curvature="0" />
      <path
         id="path3851-6-8"
         style="fill:#72634d;fill-opacity:1;fill-rule:nonzero;stroke:none"
         d="m 520.7035,561.541 c 1.00649,1.7894 2.59385,2.7438 4.608,2.7438 2.01415,0 3.60035,-0.9544 4.60627,-2.7438 0.9059,-1.6371 1.35885,-3.6022 1.35885,-6.0404 0,-2.4435 -0.45295,-4.4082 -1.35885,-6.044 -1.00592,-1.8109 -2.59212,-2.7432 -4.60627,-2.7432 -2.01415,0 -3.60151,0.9569 -4.608,2.7432 -0.90591,1.6615 -1.35769,3.6489 -1.35769,6.044 0,2.3882 0.45178,4.3529 1.35769,6.0404 z m -1.81123,-12.6363 c 1.50887,-1.8904 3.69978,-2.8698 6.41923,-2.8698 2.74388,0 4.88362,0.9551 6.41749,2.8698 1.38502,1.7596 2.09148,3.9491 2.09148,6.5959 0,2.6419 -0.70646,4.8571 -2.09148,6.5674 -1.56004,1.9397 -3.67361,2.8948 -6.41749,2.8948 -2.71945,0 -4.9342,-1.0062 -6.41923,-2.8948 -1.38501,-1.7603 -2.09148,-3.9505 -2.09148,-6.5674 0,-2.6468 0.68088,-4.8114 2.09148,-6.5959"
         inkscape:connector-curvature="0" />
      <path
         id="path3853-2-7"
         style="fill:#72634d;fill-opacity:1;fill-rule:nonzero;stroke:none"
         d="m 539.53615,561.0634 c 0,1.4827 0.0727,2.1396 0.32677,2.4912 0.25235,0.352 0.65355,0.5292 1.2321,0.5292 0.55296,0 1.03149,-0.1272 1.58446,-0.452 l 0.22909,0.653 c -0.8309,0.4297 -1.63621,0.6291 -2.54386,0.6291 -1.23325,0 -2.16474,-0.4281 -2.59385,-1.2328 -0.27736,-0.5047 -0.35004,-1.0577 -0.35004,-2.9202 l 0,-8.1569 -1.58503,0 0,-0.5792 c 1.48328,-0.1277 2.23859,-1.1073 2.61537,-3.4728 l 1.15767,-0.3305 c -0.0477,1.0836 -0.0727,2.0408 -0.0727,3.7024 l 3.02064,0 0,0.6801 -3.02064,0 0,8.4594"
         inkscape:connector-curvature="0" />
      <path
         id="path3855-9-5"
         style="fill:#72634d;fill-opacity:1;fill-rule:nonzero;stroke:none"
         d="m 547.83579,561.0634 c 0,1.4827 0.0727,2.1396 0.32503,2.4912 0.25352,0.352 0.65472,0.5292 1.23501,0.5292 0.55296,0 1.03207,-0.1272 1.58504,-0.452 l 0.22618,0.653 c -0.82915,0.4297 -1.63446,0.6291 -2.54094,0.6291 -1.23501,0 -2.16766,-0.4281 -2.59328,-1.2328 -0.27852,-0.5047 -0.35352,-1.0577 -0.35352,-2.9202 l 0,-8.1569 -1.58504,0 0,-0.5792 c 1.48445,-0.1277 2.23917,-1.1073 2.61653,-3.4728 l 1.15767,-0.3305 c -0.0483,1.0836 -0.0727,2.0408 -0.0727,3.7024 l 3.02123,0 0,0.6801 -3.02123,0 0,8.4594"
         inkscape:connector-curvature="0" />
      <path
         id="path3857-7-2"
         style="fill:#72634d;fill-opacity:1;fill-rule:nonzero;stroke:none"
         d="m 561.00103,557.614 c -2.24034,0.1999 -3.22299,0.4032 -4.23007,0.9047 -1.10592,0.5323 -1.68621,1.5381 -1.68621,2.8713 0,1.5858 0.85474,2.6672 2.11533,2.6672 1.28384,0 2.59269,-0.7543 3.22298,-1.8377 0.40179,-0.703 0.57797,-1.7607 0.57797,-3.4228 l 0,-1.1827 z m 3.65152,6.9736 c -0.98324,0.1508 -2.09149,0.2503 -2.59444,0.2503 -0.75415,0 -0.95533,-0.4027 -1.05708,-2.0881 -0.40237,0.4532 -0.72972,0.7282 -1.23268,1.0819 -1.10709,0.8045 -1.99031,1.0822 -3.27299,1.0822 -1.10709,0 -1.94031,-0.2527 -2.56828,-0.779 -0.6803,-0.6053 -1.10766,-1.6127 -1.10766,-2.6688 0,-1.9892 1.26,-3.274 3.70152,-3.8267 1.30885,-0.3007 2.64212,-0.4797 4.48009,-0.6052 l 0,-1.5852 c 0,-1.1591 -0.10176,-1.7621 -0.35062,-2.2895 -0.33084,-0.6586 -1.03382,-0.9826 -2.06532,-0.9826 -1.66004,0 -2.51885,0.7548 -2.61827,2.3152 -0.0274,0.5292 -0.0768,0.7041 -0.27736,0.8567 -0.17734,0.1272 -0.50353,0.1988 -0.88206,0.1988 -0.85415,0 -1.23326,-0.2261 -1.23326,-0.7527 0,-0.9093 0.65472,-1.8143 1.7118,-2.4174 0.95648,-0.5292 2.19033,-0.8052 3.67594,-0.8052 1.61004,0 2.76945,0.376 3.37474,1.1066 0.50296,0.6265 0.72973,1.46 0.72973,2.8455 0,0.075 0,0.075 -0.0512,2.5427 l -0.0244,2.3917 -0.025,1.1566 c 0,1.0584 0.12385,1.9642 0.27619,2.1679 0.15176,0.1994 0.45179,0.2739 1.4106,0.2739 l 0,0.5304"
         inkscape:connector-curvature="0" />
      <path
         id="path3859-3-6"
         style="fill:#72634d;fill-opacity:1;fill-rule:nonzero;stroke:none"
         d="m 570.94444,564.7384 -1.30827,0 -3.12123,-10.4485 c -0.42795,-1.4361 -0.73031,-1.7364 -1.96298,-1.8113 l 0,-0.5547 5.58717,0 0,0.5547 c -1.20768,0.048 -1.68679,0.3014 -1.68679,0.9312 0,0.2006 0.0762,0.5796 0.22792,1.1061 l 2.26418,7.9065 3.32532,-10.1698 1.03092,0 3.19798,10.1698 2.18917,-7.4011 c 0.20293,-0.6298 0.30235,-1.1102 0.30235,-1.4611 0,-0.4293 -0.25176,-0.7552 -0.70588,-0.9067 -0.30119,-0.1 -0.47853,-0.1272 -1.13325,-0.1749 l 0,-0.5547 4.93537,0 0,0.5547 c -1.38444,0.075 -1.86181,0.5542 -2.46652,2.4909 l -3.04681,9.7689 -1.28327,0 -3.14565,-9.6683 -3.19973,9.6683"
         inkscape:connector-curvature="0" />
      <path
         id="path3861-7-7"
         style="fill:#72634d;fill-opacity:1;fill-rule:nonzero;stroke:none"
         d="m 592.41921,557.614 c -2.23918,0.1999 -3.22299,0.4032 -4.22832,0.9047 -1.10941,0.5323 -1.68854,1.5381 -1.68854,2.8713 0,1.5858 0.85648,2.6672 2.11648,2.6672 1.28327,0 2.59328,-0.7543 3.22125,-1.8377 0.40353,-0.703 0.57913,-1.7607 0.57913,-3.4228 l 0,-1.1827 z m 3.65035,6.9736 c -0.98207,0.1508 -2.08741,0.2503 -2.59328,0.2503 -0.75414,0 -0.95765,-0.4027 -1.05707,-2.0881 -0.40237,0.4532 -0.72973,0.7282 -1.23152,1.0819 -1.11057,0.8045 -1.99147,1.0822 -3.27416,1.0822 -1.1065,0 -1.93914,-0.2527 -2.56827,-0.779 -0.68088,-0.6053 -1.10708,-1.6127 -1.10708,-2.6688 0,-1.9892 1.25884,-3.274 3.70036,-3.8267 1.30826,-0.3007 2.6427,-0.4797 4.48067,-0.6052 l 0,-1.5852 c 0,-1.1591 -0.1006,-1.7621 -0.35295,-2.2895 -0.32619,-0.6586 -1.03091,-0.9826 -2.06241,-0.9826 -1.66353,0 -2.51827,0.7548 -2.62002,2.3152 -0.025,0.5292 -0.0744,0.7041 -0.27677,0.8567 -0.17327,0.1272 -0.50237,0.1988 -0.88206,0.1988 -0.85357,0 -1.23094,-0.2261 -1.23094,-0.7527 0,-0.9093 0.65472,-1.8143 1.71122,-2.4174 0.9559,-0.5292 2.19033,-0.8052 3.67477,-0.8052 1.61121,0 2.77062,0.376 3.37533,1.1066 0.50121,0.6265 0.72914,1.46 0.72914,2.8455 0,0.075 0,0.075 -0.0512,2.5427 l -0.0232,2.3917 -0.0273,1.1566 c 0,1.0584 0.12618,1.9642 0.27968,2.1679 0.14885,0.1994 0.45121,0.2739 1.40711,0.2739 l 0,0.5304"
         inkscape:connector-curvature="0" />
      <path
         id="path3863-5"
         style="fill:#72634d;fill-opacity:1;fill-rule:nonzero;stroke:none"
         d="m 464.7377,537.4256 0.51516,0 0.24619,-0.452 c 1.72889,-3.1832 4.79791,-3.8499 7.06807,-3.8499 2.26947,0 5.33819,0.6667 7.06778,3.8499 l 0.24625,0.452 c 0,0 2.279,0 3.28427,0 0,0.6034 0,2.1145 0,2.1145 0,0 2.88929,0 3.94387,0 0,1.5797 0,25.908 0,27.4896 -1.58852,0 -27.49586,0 -29.08417,0 0,-1.5816 0,-25.9099 0,-27.4896 1.05456,0 3.94319,0 3.94319,0 0,0 0,-1.5111 0,-2.1145 1.00485,0 2.76939,0 2.76939,0 z m -0.47377,-1.7319 c -0.71658,0 -4.02771,0 -4.02771,0 0,0 0,1.5104 0,2.1135 -1.05479,0 -3.94365,0 -3.94365,0 l 0,30.9543 32.54974,0 0,-30.9543 c 0,0 -2.88976,0 -3.9448,0 0,-0.6031 0,-2.1135 0,-2.1135 0,0 -3.31155,0 -4.02766,0 -1.71529,-2.7699 -4.63191,-4.3023 -8.30273,-4.3023 -3.67135,0 -6.58837,1.5324 -8.30319,4.3023"
         inkscape:connector-curvature="0" />
      <path
         id="path3865-1"
         style="fill:#72634d;fill-opacity:1;fill-rule:nonzero;stroke:none"
         d="m 459.8292,562.391 25.47352,0 0,0.9528 -25.47352,0 0,-0.9528"
         inkscape:connector-curvature="0" />
      <path
         id="path3867-8"
         style="fill:#72634d;fill-opacity:1;fill-rule:nonzero;stroke:none"
         d="m 459.08286,564.0572 26.96982,0 0,0.9526 -26.96982,0 0,-0.9526"
         inkscape:connector-curvature="0" />
      <path
         id="path3869-8"
         style="fill:#72634d;fill-opacity:1;fill-rule:nonzero;stroke:none"
         d="m 472.27407,541.4855 -12.73718,4.5794 0.58554,1.6292 c 0,0 11.88522,-4.2719 12.44469,-4.4726 0.55918,0.2007 12.44395,4.4726 12.44395,4.4726 l 0.58598,-1.6292 -13.02993,-4.685 -0.29305,0.1056"
         inkscape:connector-curvature="0" />
      <path
         id="path3871-8"
         style="fill:#72634d;fill-opacity:1;fill-rule:nonzero;stroke:none"
         d="m 481.32978,559.7109 -2.72219,0 -0.23619,-9.6989 c 0.0722,0.037 0.15264,0.06 0.23869,0.06 0.29823,0 0.54151,-0.2412 0.54151,-0.5395 0,-0.1458 -0.0593,-0.2786 -0.15403,-0.3752 l 1.94403,0 c -0.094,0.097 -0.1524,0.2294 -0.1524,0.3752 0,0.2983 0.24212,0.5395 0.53854,0.5395 0.0856,0 0.16601,-0.022 0.23846,-0.058 l -0.23642,9.6973 z m -4.93671,0 -2.71962,0 -0.23648,-9.6921 c 0.0698,0.033 0.14699,0.053 0.22898,0.053 0.29753,0 0.53918,-0.2412 0.53918,-0.5395 0,-0.1458 -0.0588,-0.2786 -0.15304,-0.3752 l 1.94647,0 c -0.0945,0.097 -0.15333,0.2294 -0.15333,0.3752 0,0.2983 0.24281,0.5395 0.53831,0.5395 0.0895,0 0.1724,-0.024 0.24648,-0.062 l -0.23695,9.7011 z m -4.93094,0 -2.73009,0 -0.23602,-9.6996 c 0.0736,0.038 0.1556,0.06 0.24346,0.06 0.29642,0 0.53854,-0.2412 0.53854,-0.5395 0,-0.1458 -0.0586,-0.2786 -0.15263,-0.3752 l 1.9456,0 c -0.0943,0.097 -0.1531,0.2294 -0.1531,0.3752 0,0.2983 0.24171,0.5395 0.5397,0.5395 0.087,0 0.16758,-0.022 0.24096,-0.06 l -0.23642,9.6996 z m -4.94147,0 -2.72643,0 -0.23648,-9.7007 c 0.0741,0.038 0.1563,0.061 0.24439,0.061 0.29759,0 0.53947,-0.2412 0.53947,-0.5395 0,-0.1458 -0.0588,-0.2787 -0.1531,-0.3752 l 1.93444,0 c -0.0943,0.097 -0.15351,0.2294 -0.15351,0.3752 0,0.2983 0.24369,0.5395 0.54081,0.5395 0.0886,0 0.17054,-0.023 0.24502,-0.062 l -0.23461,9.7011 z m 17.02067,0 -0.23782,-9.7057 c 0.0752,0.041 0.15967,0.066 0.25096,0.066 0.29846,0 0.54058,-0.2412 0.54058,-0.5395 0,-0.1458 -0.0588,-0.2787 -0.1531,-0.3752 l 0.43545,0 0,-0.9539 -23.62037,0 0,0.9539 0.43132,0 c -0.0945,0.097 -0.15354,0.2294 -0.15354,0.3752 0,0.2983 0.2419,0.5395 0.54284,0.5395 0.0865,0 0.16717,-0.022 0.24007,-0.06 l -0.23349,9.6996 -0.89579,0 0,1.5876 23.75187,0 0,-1.5876 -0.89898,0"
         inkscape:connector-curvature="0" />
    </g>
    <text
       xml:space="preserve"
       style="font-size:30px;font-style:normal;font-variant:normal;font-weight:600;font-stretch:normal;text-align:center;line-height:125%;letter-spacing:0px;word-spacing:0px;writing-mode:lr-tb;text-anchor:middle;fill:#72634d;fill-opacity:1;stroke:none;font-family:Myriad Pro;-inkscape-font-specification:Myriad Pro Semi-Bold"
       x="525.66498"
       y="666.78247"
       id="text2985-1-4-4-7"
       sodipodi:linespacing="125%"><tspan
         sodipodi:role="line"
         x="525.66498"
         y="666.78247"
         id="tspan2991-0-3-3-8"
         style="font-size:30px;font-style:normal;font-variant:normal;font-weight:600;font-stretch:normal;text-align:center;line-height:125%;writing-mode:lr-tb;text-anchor:middle;fill:#72634d;fill-opacity:1;font-family:Myriad Pro;-inkscape-font-specification:Myriad Pro Semi-Bold">BIOINSPIRED</tspan></text>
    <text
       xml:space="preserve"
       style="font-size:30px;font-style:normal;font-variant:normal;font-weight:600;font-stretch:normal;text-align:start;line-height:125%;letter-spacing:4.5px;word-spacing:0px;writing-mode:lr-tb;text-anchor:start;fill:#72634d;fill-opacity:1;stroke:none;font-family:Myriad Pro;-inkscape-font-specification:Myriad Pro Semi-Bold"
       x="441.75024"
       y="689.69244"
       id="text2993-4-6-1-9"
       sodipodi:linespacing="125%"><tspan
         sodipodi:role="line"
         id="tspan2995-9-3-1-5"
         x="441.75024"
         y="689.69244"
         style="font-size:30px;font-style:normal;font-variant:normal;font-weight:600;font-stretch:normal;text-align:start;line-height:125%;letter-spacing:5.05000019px;writing-mode:lr-tb;text-anchor:start;fill:#72634d;fill-opacity:1;font-family:Myriad Pro;-inkscape-font-specification:Myriad Pro Semi-Bold">ROBOTICS</tspan></text>
    <path
       inkscape:connector-curvature="0"
       d="m 519.57988,714.27678 c -0.0745,-0.6024 -0.12443,-1.3594 -0.12443,-2.5927 -0.98347,1.7103 -2.61997,2.7217 -4.48125,2.7217 -1.61197,0 -2.84598,-0.7813 -3.34906,-2.1164 -0.25101,-0.6803 -0.35206,-1.7119 -0.35206,-3.9032 l 0,-4.1531 c 0,-1.3099 -0.10106,-1.8368 -0.37748,-2.0639 -0.15287,-0.1511 -0.37771,-0.2037 -0.85811,-0.226 -0.3259,0 -0.3259,0 -0.45313,0 l 0,-0.5547 3.90213,-0.2505 c -0.12426,2.339 -0.14879,2.9448 -0.14879,4.6819 l 0,2.1899 c 0,2.5421 0.0488,3.2226 0.35207,4.1031 0.30159,0.9313 1.00684,1.4089 2.03845,1.4089 1.38438,0 2.6184,-0.9062 3.2741,-2.4418 0.37591,-0.8545 0.45313,-1.4098 0.45313,-2.9698 l 0,-3.8771 c 0,-1.3343 -0.0772,-1.8129 -0.37934,-2.0385 -0.15217,-0.1515 -0.40313,-0.2291 -0.85625,-0.2514 l -0.45359,0 0,-0.5547 3.90323,-0.2505 c -0.0756,1.8868 -0.1249,3.5478 -0.1249,4.6819 l 0,4.7576 c 0,2.5189 0.22712,2.9709 1.53358,2.9709 l 0.17711,0 0,0.5524 -3.67541,0.176"
       style="fill:#72634d;fill-opacity:1;fill-rule:nonzero;stroke:none"
       id="path3849-6-1-4" />
    <path
       inkscape:connector-curvature="0"
       d="m 531.41167,711.00558 c 1.00649,1.7894 2.59385,2.7438 4.608,2.7438 2.01415,0 3.60035,-0.9544 4.60627,-2.7438 0.9059,-1.6371 1.35885,-3.6022 1.35885,-6.0404 0,-2.4435 -0.45295,-4.4082 -1.35885,-6.044 -1.00592,-1.8109 -2.59212,-2.7432 -4.60627,-2.7432 -2.01415,0 -3.60151,0.9569 -4.608,2.7432 -0.90591,1.6615 -1.35769,3.6489 -1.35769,6.044 0,2.3882 0.45178,4.3529 1.35769,6.0404 z m -1.81123,-12.6363 c 1.50887,-1.8904 3.69978,-2.8698 6.41923,-2.8698 2.74388,0 4.88362,0.9551 6.41749,2.8698 1.38502,1.7596 2.09148,3.9491 2.09148,6.5959 0,2.6419 -0.70646,4.8571 -2.09148,6.5674 -1.56004,1.9397 -3.67361,2.8948 -6.41749,2.8948 -2.71945,0 -4.9342,-1.0062 -6.41923,-2.8948 -1.38501,-1.7603 -2.09148,-3.9505 -2.09148,-6.5674 0,-2.6468 0.68088,-4.8114 2.09148,-6.5959"
       style="fill:#72634d;fill-opacity:1;fill-rule:nonzero;stroke:none"
       id="path3851-6-8-4" />
    <path
       inkscape:connector-curvature="0"
       d="m 550.24432,710.52798 c 0,1.4827 0.0727,2.1396 0.32677,2.4912 0.25235,0.352 0.65355,0.5292 1.2321,0.5292 0.55296,0 1.03149,-0.1272 1.58446,-0.452 l 0.22909,0.653 c -0.8309,0.4297 -1.63621,0.6291 -2.54386,0.6291 -1.23325,0 -2.16474,-0.4281 -2.59385,-1.2328 -0.27736,-0.5047 -0.35004,-1.0577 -0.35004,-2.9202 l 0,-8.1569 -1.58503,0 0,-0.5792 c 1.48328,-0.1277 2.23859,-1.1073 2.61537,-3.4728 l 1.15767,-0.3305 c -0.0477,1.0836 -0.0727,2.0408 -0.0727,3.7024 l 3.02064,0 0,0.6801 -3.02064,0 0,8.4594"
       style="fill:#72634d;fill-opacity:1;fill-rule:nonzero;stroke:none"
       id="path3853-2-7-3" />
    <path
       inkscape:connector-curvature="0"
       d="m 558.54396,710.52798 c 0,1.4827 0.0727,2.1396 0.32503,2.4912 0.25352,0.352 0.65472,0.5292 1.23501,0.5292 0.55296,0 1.03207,-0.1272 1.58504,-0.452 l 0.22618,0.653 c -0.82915,0.4297 -1.63446,0.6291 -2.54094,0.6291 -1.23501,0 -2.16766,-0.4281 -2.59328,-1.2328 -0.27852,-0.5047 -0.35352,-1.0577 -0.35352,-2.9202 l 0,-8.1569 -1.58504,0 0,-0.5792 c 1.48445,-0.1277 2.23917,-1.1073 2.61653,-3.4728 l 1.15767,-0.3305 c -0.0483,1.0836 -0.0727,2.0408 -0.0727,3.7024 l 3.02123,0 0,0.6801 -3.02123,0 0,8.4594"
       style="fill:#72634d;fill-opacity:1;fill-rule:nonzero;stroke:none"
       id="path3855-9-5-7" />
    <path
       inkscape:connector-curvature="0"
       d="m 571.7092,707.07858 c -2.24034,0.1999 -3.22299,0.4032 -4.23007,0.9047 -1.10592,0.5323 -1.68621,1.5381 -1.68621,2.8713 0,1.5858 0.85474,2.6672 2.11533,2.6672 1.28384,0 2.59269,-0.7543 3.22298,-1.8377 0.40179,-0.703 0.57797,-1.7607 0.57797,-3.4228 l 0,-1.1827 z m 3.65152,6.9736 c -0.98324,0.1508 -2.09149,0.2503 -2.59444,0.2503 -0.75415,0 -0.95533,-0.4027 -1.05708,-2.0881 -0.40237,0.4532 -0.72972,0.7282 -1.23268,1.0819 -1.10709,0.8045 -1.99031,1.0822 -3.27299,1.0822 -1.10709,0 -1.94031,-0.2527 -2.56828,-0.779 -0.6803,-0.6053 -1.10766,-1.6127 -1.10766,-2.6688 0,-1.9892 1.26,-3.274 3.70152,-3.8267 1.30885,-0.3007 2.64212,-0.4797 4.48009,-0.6052 l 0,-1.5852 c 0,-1.1591 -0.10176,-1.7621 -0.35062,-2.2895 -0.33084,-0.6586 -1.03382,-0.9826 -2.06532,-0.9826 -1.66004,0 -2.51885,0.7548 -2.61827,2.3152 -0.0274,0.5292 -0.0768,0.7041 -0.27736,0.8567 -0.17734,0.1272 -0.50353,0.1988 -0.88206,0.1988 -0.85415,0 -1.23326,-0.2261 -1.23326,-0.7527 0,-0.9093 0.65472,-1.8143 1.7118,-2.4174 0.95648,-0.5292 2.19033,-0.8052 3.67594,-0.8052 1.61004,0 2.76945,0.376 3.37474,1.1066 0.50296,0.6265 0.72973,1.46 0.72973,2.8455 0,0.075 0,0.075 -0.0512,2.5427 l -0.0244,2.3917 -0.025,1.1566 c 0,1.0584 0.12385,1.9642 0.27619,2.1679 0.15176,0.1994 0.45179,0.2739 1.4106,0.2739 l 0,0.5304"
       style="fill:#72634d;fill-opacity:1;fill-rule:nonzero;stroke:none"
       id="path3857-7-2-3" />
    <path
       inkscape:connector-curvature="0"
       d="m 581.65261,714.20298 -1.30827,0 -3.12123,-10.4485 c -0.42795,-1.4361 -0.73031,-1.7364 -1.96298,-1.8113 l 0,-0.5547 5.58717,0 0,0.5547 c -1.20768,0.048 -1.68679,0.3014 -1.68679,0.9312 0,0.2006 0.0762,0.5796 0.22792,1.1061 l 2.26418,7.9065 3.32532,-10.1698 1.03092,0 3.19798,10.1698 2.18917,-7.4011 c 0.20293,-0.6298 0.30235,-1.1102 0.30235,-1.4611 0,-0.4293 -0.25176,-0.7552 -0.70588,-0.9067 -0.30119,-0.1 -0.47853,-0.1272 -1.13325,-0.1749 l 0,-0.5547 4.93537,0 0,0.5547 c -1.38444,0.075 -1.86181,0.5542 -2.46652,2.4909 l -3.04681,9.7689 -1.28327,0 -3.14565,-9.6683 -3.19973,9.6683"
       style="fill:#72634d;fill-opacity:1;fill-rule:nonzero;stroke:none"
       id="path3859-3-6-9" />
    <path
       inkscape:connector-curvature="0"
       d="m 603.12738,707.07858 c -2.23918,0.1999 -3.22299,0.4032 -4.22832,0.9047 -1.10941,0.5323 -1.68854,1.5381 -1.68854,2.8713 0,1.5858 0.85648,2.6672 2.11648,2.6672 1.28327,0 2.59328,-0.7543 3.22125,-1.8377 0.40353,-0.703 0.57913,-1.7607 0.57913,-3.4228 l 0,-1.1827 z m 3.65035,6.9736 c -0.98207,0.1508 -2.08741,0.2503 -2.59328,0.2503 -0.75414,0 -0.95765,-0.4027 -1.05707,-2.0881 -0.40237,0.4532 -0.72973,0.7282 -1.23152,1.0819 -1.11057,0.8045 -1.99147,1.0822 -3.27416,1.0822 -1.1065,0 -1.93914,-0.2527 -2.56827,-0.779 -0.68088,-0.6053 -1.10708,-1.6127 -1.10708,-2.6688 0,-1.9892 1.25884,-3.274 3.70036,-3.8267 1.30826,-0.3007 2.6427,-0.4797 4.48067,-0.6052 l 0,-1.5852 c 0,-1.1591 -0.1006,-1.7621 -0.35295,-2.2895 -0.32619,-0.6586 -1.03091,-0.9826 -2.06241,-0.9826 -1.66353,0 -2.51827,0.7548 -2.62002,2.3152 -0.025,0.5292 -0.0744,0.7041 -0.27677,0.8567 -0.17327,0.1272 -0.50237,0.1988 -0.88206,0.1988 -0.85357,0 -1.23094,-0.2261 -1.23094,-0.7527 0,-0.9093 0.65472,-1.8143 1.71122,-2.4174 0.9559,-0.5292 2.19033,-0.8052 3.67477,-0.8052 1.61121,0 2.77062,0.376 3.37533,1.1066 0.50121,0.6265 0.72914,1.46 0.72914,2.8455 0,0.075 0,0.075 -0.0512,2.5427 l -0.0232,2.3917 -0.0273,1.1566 c 0,1.0584 0.12618,1.9642 0.27968,2.1679 0.14885,0.1994 0.45121,0.2739 1.40711,0.2739 l 0,0.5304"
       style="fill:#72634d;fill-opacity:1;fill-rule:nonzero;stroke:none"
       id="path3861-7-7-5" />
    <g
       id="g4581"
       transform="translate(-1.5258789e-5,-422.29775)">
      <text
         sodipodi:linespacing="125%"
         id="text2985-1-4-2"
         y="873.41211"
         x="525.66492"
         style="font-size:30px;font-style:normal;font-variant:normal;font-weight:600;font-stretch:normal;text-align:center;line-height:125%;letter-spacing:0px;word-spacing:0px;writing-mode:lr-tb;text-anchor:middle;fill:#72634d;fill-opacity:1;stroke:none;font-family:Myriad Pro;-inkscape-font-specification:Myriad Pro Semi-Bold"
         xml:space="preserve"><tspan
           style="font-size:30px;font-style:normal;font-variant:normal;font-weight:600;font-stretch:normal;text-align:center;line-height:125%;writing-mode:lr-tb;text-anchor:middle;fill:#72634d;fill-opacity:1;font-family:Myriad Pro;-inkscape-font-specification:Myriad Pro Semi-Bold"
           id="tspan2991-0-3-9"
           y="873.41211"
           x="525.66492"
           sodipodi:role="line">BIOINSPIRED</tspan></text>
      <text
         sodipodi:linespacing="125%"
         id="text2993-4-6-0"
         y="896.32202"
         x="441.75024"
         style="font-size:30px;font-style:normal;font-variant:normal;font-weight:600;font-stretch:normal;text-align:start;line-height:125%;letter-spacing:4.5px;word-spacing:0px;writing-mode:lr-tb;text-anchor:start;fill:#72634d;fill-opacity:1;stroke:none;font-family:Myriad Pro;-inkscape-font-specification:Myriad Pro Semi-Bold"
         xml:space="preserve"><tspan
           style="font-size:30px;font-style:normal;font-variant:normal;font-weight:600;font-stretch:normal;text-align:start;line-height:125%;letter-spacing:5.05000019px;writing-mode:lr-tb;text-anchor:start;fill:#72634d;fill-opacity:1;font-family:Myriad Pro;-inkscape-font-specification:Myriad Pro Semi-Bold"
           y="896.32202"
           x="441.75024"
           id="tspan2995-9-3-6"
           sodipodi:role="line">ROBOTICS</tspan></text>
      <path
         id="path3849-6-1-1"
         style="fill:#72634d;fill-opacity:1;fill-rule:nonzero;stroke:none"
         d="m 505.85392,843.33795 c -0.0867,-0.70093 -0.14479,-1.58173 -0.14479,-3.01673 -1.1443,1.99001 -3.04844,3.16682 -5.21413,3.16682 -1.87559,0 -3.31142,-0.90908 -3.89677,-2.46252 -0.29206,-0.79155 -0.40964,-1.99187 -0.40964,-4.54154 l 0,-4.83232 c 0,-1.52412 -0.11758,-2.13719 -0.43921,-2.40144 -0.17787,-0.1758 -0.43949,-0.23702 -0.99844,-0.26295 -0.37921,0 -0.37921,0 -0.52724,0 l 0,-0.64542 4.54029,-0.29147 c -0.14458,2.72153 -0.17313,3.4264 -0.17313,5.44759 l 0,2.54804 c 0,2.95784 0.0568,3.74965 0.40965,4.77415 0.35093,1.0836 1.17151,1.6393 2.37183,1.6393 1.61078,0 3.04662,-1.05439 3.80956,-2.84113 0.43739,-0.99424 0.52723,-1.64036 0.52723,-3.45548 l 0,-4.51119 c 0,-1.55251 -0.0899,-2.10939 -0.44137,-2.37188 -0.17706,-0.17627 -0.46907,-0.26658 -0.99628,-0.29251 l -0.52777,0 0,-0.64542 4.54156,-0.29147 c -0.088,2.19538 -0.14532,4.12803 -0.14532,5.44759 l 0,5.53568 c 0,2.93084 0.26427,3.45677 1.78439,3.45677 l 0.20608,0 0,0.64274 -4.2765,0.20479"
         inkscape:connector-curvature="0" />
      <path
         id="path3851-6-8-1"
         style="fill:#72634d;fill-opacity:1;fill-rule:nonzero;stroke:none"
         d="m 519.62071,839.53176 c 1.1711,2.08205 3.01807,3.19254 5.3616,3.19254 2.34356,0 4.18918,-1.11049 5.35961,-3.19254 1.05405,-1.90484 1.58107,-4.19132 1.58107,-7.02826 0,-2.84312 -0.52702,-5.12913 -1.58107,-7.03247 -1.17043,-2.10706 -3.01605,-3.19182 -5.35961,-3.19182 -2.34353,0 -4.1905,1.11339 -5.3616,3.19182 -1.05406,1.93323 -1.57973,4.24566 -1.57973,7.03247 0,2.77877 0.52567,5.06478 1.57973,7.02826 z m -2.10744,-14.70288 c 1.75564,-2.19956 4.30485,-3.33913 7.46904,-3.33913 3.19264,0 5.68232,1.1113 7.46704,3.33913 1.61153,2.04738 2.43353,4.59494 2.43353,7.67462 0,3.07396 -0.822,5.65145 -2.43353,7.64145 -1.81518,2.25692 -4.2744,3.36822 -7.46704,3.36822 -3.16419,0 -5.74114,-1.17076 -7.46904,-3.36822 -1.61152,-2.04819 -2.43352,-4.59658 -2.43352,-7.64145 0,-3.07968 0.79223,-5.59827 2.43352,-7.67462"
         inkscape:connector-curvature="0" />
      <path
         id="path3853-2-7-7"
         style="fill:#72634d;fill-opacity:1;fill-rule:nonzero;stroke:none"
         d="m 541.53331,838.97606 c 0,1.72518 0.0845,2.48951 0.38021,2.89861 0.29362,0.40956 0.76044,0.61575 1.43361,0.61575 0.6434,0 1.20019,-0.14801 1.84359,-0.52593 l 0.26655,0.75981 c -0.96678,0.49997 -1.9038,0.73198 -2.95989,0.73198 -1.43494,0 -2.51877,-0.49812 -3.01806,-1.43442 -0.32271,-0.58724 -0.40728,-1.23068 -0.40728,-3.39777 l 0,-9.49092 -1.84425,0 0,-0.67391 c 1.72585,-0.1486 2.6047,-1.2884 3.04309,-4.04076 l 1.347,-0.38455 c -0.0556,1.26081 -0.0845,2.37456 -0.0845,4.3079 l 3.51465,0 0,0.79132 -3.51465,0 0,9.84289"
         inkscape:connector-curvature="0" />
      <path
         id="path3855-9-5-9"
         style="fill:#72634d;fill-opacity:1;fill-rule:nonzero;stroke:none"
         d="m 551.19031,838.97606 c 0,1.72518 0.0845,2.48951 0.37818,2.89861 0.29498,0.40956 0.7618,0.61575 1.43698,0.61575 0.64341,0 1.20087,-0.14801 1.84427,-0.52593 l 0.26317,0.75981 c -0.96475,0.49997 -1.90177,0.73198 -2.95649,0.73198 -1.43698,0 -2.52217,-0.49812 -3.0174,-1.43442 -0.32407,-0.58724 -0.41133,-1.23068 -0.41133,-3.39777 l 0,-9.49092 -1.84427,0 0,-0.67391 c 1.72723,-0.1486 2.60537,-1.2884 3.04446,-4.04076 l 1.34699,-0.38455 c -0.0561,1.26081 -0.0845,2.37456 -0.0845,4.3079 l 3.51532,0 0,0.79132 -3.51532,0 0,9.84289"
         inkscape:connector-curvature="0" />
      <path
         id="path3857-7-2-0"
         style="fill:#72634d;fill-opacity:1;fill-rule:nonzero;stroke:none"
         d="m 566.50863,834.96253 c -2.60673,0.23259 -3.75009,0.46914 -4.92188,1.05265 -1.28678,0.61936 -1.96196,1.78965 -1.96196,3.34088 0,1.84516 0.99452,3.1034 2.46127,3.1034 1.49381,0 3.0167,-0.87765 3.75008,-2.13824 0.4675,-0.81797 0.67249,-2.04864 0.67249,-3.98258 l 0,-1.37611 z m 4.24871,8.11408 c -1.14405,0.17546 -2.43354,0.29123 -3.01875,0.29123 -0.87748,0 -1.11156,-0.46855 -1.22996,-2.42959 -0.46817,0.52732 -0.84906,0.84729 -1.43427,1.25884 -1.28815,0.93607 -2.31582,1.25919 -3.80827,1.25919 -1.28815,0 -2.25764,-0.29403 -2.98831,-0.90641 -0.79156,-0.70428 -1.2888,-1.87644 -1.2888,-3.10526 0,-2.31452 1.46606,-3.80944 4.30688,-4.45254 1.52289,-0.34987 3.07421,-0.55814 5.21277,-0.70417 l 0,-1.84444 c 0,-1.34867 -0.11839,-2.05029 -0.40796,-2.66394 -0.38495,-0.76632 -1.2029,-1.14329 -2.40309,-1.14329 -1.93153,0 -2.93078,0.87824 -3.04647,2.69383 -0.0319,0.61575 -0.0894,0.81926 -0.32272,0.9968 -0.20634,0.148 -0.58588,0.23132 -1.02632,0.23132 -0.99383,0 -1.43495,-0.26308 -1.43495,-0.8758 0,-1.058 0.7618,-2.11102 1.99176,-2.81275 1.11291,-0.61575 2.54854,-0.93689 4.27711,-0.93689 1.87335,0 3.22238,0.4375 3.92666,1.28759 0.58521,0.72896 0.84907,1.69877 0.84907,3.31086 0,0.0872 0,0.0872 -0.0596,2.95854 l -0.0284,2.78285 -0.0291,1.34575 c 0,1.23149 0.14411,2.28543 0.32136,2.52245 0.17658,0.232 0.52568,0.31868 1.6413,0.31868 l 0,0.61715"
         inkscape:connector-curvature="0" />
      <path
         id="path3859-3-6-6"
         style="fill:#72634d;fill-opacity:1;fill-rule:nonzero;stroke:none"
         d="m 578.07822,843.25207 -1.52224,0 -3.63167,-12.15728 c -0.49795,-1.67097 -0.84976,-2.02037 -2.28401,-2.10752 l 0,-0.64542 6.5009,0 0,0.64542 c -1.40518,0.0559 -1.96266,0.35069 -1.96266,1.08349 0,0.2334 0.0887,0.67439 0.26521,1.28699 l 2.63447,9.19955 3.86916,-11.83299 1.1995,0 3.721,11.83299 2.54719,-8.61149 c 0.23612,-0.7328 0.3518,-1.29178 0.3518,-1.70005 0,-0.49952 -0.29293,-0.87872 -0.82132,-1.05499 -0.35045,-0.11635 -0.55679,-0.148 -1.31859,-0.2035 l 0,-0.64542 5.74252,0 0,0.64542 c -1.61086,0.0872 -2.1663,0.64484 -2.8699,2.89827 l -3.5451,11.36653 -1.49314,0 -3.6601,-11.24948 -3.72302,11.24948"
         inkscape:connector-curvature="0" />
      <path
         id="path3861-7-7-0"
         style="fill:#72634d;fill-opacity:1;fill-rule:nonzero;stroke:none"
         d="m 603.06504,834.96253 c -2.60538,0.23259 -3.75009,0.46914 -4.91983,1.05265 -1.29085,0.61936 -1.96469,1.78965 -1.96469,3.34088 0,1.84516 0.99655,3.1034 2.46262,3.1034 1.49314,0 3.01738,-0.87765 3.74806,-2.13824 0.46952,-0.81797 0.67384,-2.04864 0.67384,-3.98258 l 0,-1.37611 z m 4.24734,8.11408 c -1.14269,0.17546 -2.42879,0.29123 -3.0174,0.29123 -0.87747,0 -1.11427,-0.46855 -1.22994,-2.42959 -0.46817,0.52732 -0.84908,0.84729 -1.43293,1.25884 -1.2922,0.93607 -2.31716,1.25919 -3.80963,1.25919 -1.28745,0 -2.25627,-0.29403 -2.98828,-0.90641 -0.79224,-0.70428 -1.28814,-1.87644 -1.28814,-3.10526 0,-2.31452 1.4647,-3.80944 4.30553,-4.45254 1.52221,-0.34987 3.07489,-0.55814 5.21345,-0.70417 l 0,-1.84444 c 0,-1.34867 -0.11705,-2.05029 -0.41067,-2.66394 -0.37954,-0.76632 -1.19951,-1.14329 -2.39971,-1.14329 -1.93558,0 -2.93011,0.87824 -3.0485,2.69383 -0.0291,0.61575 -0.0866,0.81926 -0.32204,0.9968 -0.2016,0.148 -0.58453,0.23132 -1.0263,0.23132 -0.99318,0 -1.43227,-0.26308 -1.43227,-0.8758 0,-1.058 0.7618,-2.11102 1.99108,-2.81275 1.11225,-0.61575 2.54855,-0.93689 4.27576,-0.93689 1.87471,0 3.22373,0.4375 3.92734,1.28759 0.58318,0.72896 0.84838,1.69877 0.84838,3.31086 0,0.0872 0,0.0872 -0.0596,2.95854 l -0.027,2.78285 -0.0318,1.34575 c 0,1.23149 0.14681,2.28543 0.32543,2.52245 0.17319,0.232 0.525,0.31868 1.63722,0.31868 l 0,0.61715"
         inkscape:connector-curvature="0" />
      <path
         id="path3863-5-7"
         style="fill:#72634d;fill-opacity:1;fill-rule:nonzero;stroke:none"
         d="m 454.50209,811.47245 0.59941,0 0.28645,-0.52593 c 2.01164,-3.70378 5.58258,-4.47951 8.22401,-4.47951 2.64062,0 6.21121,0.77573 8.22367,4.47951 l 0.28652,0.52593 c 0,0 2.65172,0 3.82139,0 0,0.70209 0,2.46031 0,2.46031 0,0 3.36181,0 4.58887,0 0,1.83806 0,30.14509 0,31.98534 -1.84832,0 -31.99263,0 -33.8407,0 0,-1.84025 0,-30.14728 0,-31.98534 1.22703,0 4.58807,0 4.58807,0 0,0 0,-1.75822 0,-2.46031 1.16919,0 3.22231,0 3.22231,0 z m -0.55125,-2.01514 c -0.83378,0 -4.68642,0 -4.68642,0 0,0 0,1.75742 0,2.45915 -1.22728,0 -4.5886,0 -4.5886,0 l 0,36.01666 37.87302,0 0,-36.01666 c 0,0 -3.36236,0 -4.58994,0 0,-0.70173 0,-2.45915 0,-2.45915 0,0 -3.85313,0 -4.68636,0 -1.99581,-3.22289 -5.38942,-5.00591 -9.66058,-5.00591 -4.27178,0 -7.66585,1.78302 -9.66112,5.00591"
         inkscape:connector-curvature="0" />
      <path
         id="path3865-1-0"
         style="fill:#72634d;fill-opacity:1;fill-rule:nonzero;stroke:none"
         d="m 448.79083,840.52076 29.63955,0 0,1.10864 -29.63955,0 0,-1.10864"
         inkscape:connector-curvature="0" />
      <path
         id="path3867-8-7"
         style="fill:#72634d;fill-opacity:1;fill-rule:nonzero;stroke:none"
         d="m 447.92244,842.45946 31.38055,0 0,1.1084 -31.38055,0 0,-1.1084"
         inkscape:connector-curvature="0" />
      <path
         id="path3869-8-1"
         style="fill:#72634d;fill-opacity:1;fill-rule:nonzero;stroke:none"
         d="m 463.27098,816.19631 -14.82026,5.32834 0.6813,1.89565 c 0,0 13.82896,-4.97054 14.47994,-5.20407 0.65062,0.23353 14.47907,5.20407 14.47907,5.20407 l 0.68181,-1.89565 -15.16088,-5.4512 -0.34098,0.12286"
         inkscape:connector-curvature="0" />
      <path
         id="path3871-8-0"
         style="fill:#72634d;fill-opacity:1;fill-rule:nonzero;stroke:none"
         d="m 473.80769,837.40236 -3.16739,0 -0.27481,-11.2851 c 0.084,0.0431 0.17761,0.0698 0.27773,0.0698 0.347,0 0.63006,-0.28065 0.63006,-0.62773 0,-0.16965 -0.069,-0.32416 -0.17922,-0.43656 l 2.26197,0 c -0.10938,0.11286 -0.17732,0.26691 -0.17732,0.43656 0,0.34708 0.2817,0.62773 0.62661,0.62773 0.0996,0 0.19316,-0.0256 0.27745,-0.0674 l -0.27508,11.28323 z m -5.74408,0 -3.16439,0 -0.27516,-11.27718 c 0.0813,0.0384 0.17104,0.0617 0.26643,0.0617 0.34619,0 0.62736,-0.28065 0.62736,-0.62772 0,-0.16965 -0.0684,-0.32418 -0.17806,-0.43656 l 2.26479,0 c -0.10995,0.11286 -0.1784,0.26691 -0.1784,0.43656 0,0.34707 0.28251,0.62772 0.62635,0.62772 0.10413,0 0.20059,-0.028 0.28678,-0.0722 l -0.2757,11.28765 z m -5.73735,0 -3.17659,0 -0.27462,-11.2859 c 0.0856,0.0443 0.18106,0.0698 0.28328,0.0698 0.3449,0 0.62662,-0.28066 0.62662,-0.62774 0,-0.16965 -0.0682,-0.32416 -0.17759,-0.43656 l 2.26379,0 c -0.10972,0.11286 -0.17815,0.26691 -0.17815,0.43656 0,0.34708 0.28124,0.62774 0.62798,0.62774 0.10125,0 0.19498,-0.0256 0.28035,-0.0698 l -0.27507,11.2859 z m -5.74963,0 -3.17231,0 -0.27515,-11.28719 c 0.0863,0.0443 0.18185,0.071 0.28435,0.071 0.34626,0 0.62769,-0.28064 0.62769,-0.62774 0,-0.16963 -0.0684,-0.32427 -0.17813,-0.43655 l 2.25081,0 c -0.10973,0.11285 -0.17862,0.26692 -0.17862,0.43655 0,0.3471 0.28355,0.62774 0.62926,0.62774 0.10307,0 0.19843,-0.0268 0.28509,-0.0721 l -0.27299,11.28764 z m 19.8043,0 -0.27673,-11.29301 c 0.0876,0.0478 0.1858,0.0768 0.29201,0.0768 0.34728,0 0.629,-0.28064 0.629,-0.62773 0,-0.16965 -0.0684,-0.32428 -0.17815,-0.43656 l 0.50667,0 0,-1.1099 -27.48333,0 0,1.1099 0.50187,0 c -0.10995,0.11285 -0.17865,0.26691 -0.17865,0.43656 0,0.34709 0.28146,0.62773 0.63161,0.62773 0.10062,0 0.19452,-0.0256 0.27934,-0.0698 l -0.27168,11.28591 -1.04229,0 0,1.84724 27.63633,0 0,-1.84724 -1.046,0"
         inkscape:connector-curvature="0" />
    </g>
  </g>
</svg>
