<?xml version="1.0" encoding="UTF-8" standalone="no"?>
<!-- Created with Inkscape (http://www.inkscape.org/) -->

<svg
   xmlns:dc="http://purl.org/dc/elements/1.1/"
   xmlns:cc="http://creativecommons.org/ns#"
   xmlns:rdf="http://www.w3.org/1999/02/22-rdf-syntax-ns#"
   xmlns:svg="http://www.w3.org/2000/svg"
   xmlns="http://www.w3.org/2000/svg"
   xmlns:sodipodi="http://sodipodi.sourceforge.net/DTD/sodipodi-0.dtd"
   xmlns:inkscape="http://www.inkscape.org/namespaces/inkscape"
   width="250"
   height="250"
   id="svg3107"
   version="1.1"
   inkscape:version="0.48.4 r9939"
   sodipodi:docname="bioInRoboticsUOttawa-squared-250-bigletters.svg"
   inkscape:export-filename="/home/vinicius/Dropbox/uOttawa/lab/lab imgs/bioInRoboticsUOttawa-squared-250-bigletters.png"
   inkscape:export-xdpi="90"
   inkscape:export-ydpi="90">
  <defs
     id="defs3109" />
  <sodipodi:namedview
     id="base"
     pagecolor="#ffffff"
     bordercolor="#666666"
     borderopacity="1.0"
     inkscape:pageopacity="1"
     inkscape:pageshadow="2"
     inkscape:zoom="1.979899"
     inkscape:cx="83.655091"
     inkscape:cy="99.377143"
     inkscape:document-units="px"
     inkscape:current-layer="layer1"
     showgrid="false"
     inkscape:window-width="1366"
     inkscape:window-height="744"
     inkscape:window-x="0"
     inkscape:window-y="24"
     inkscape:window-maximized="1"
     showguides="true"
     inkscape:guide-bbox="true">
    <sodipodi:guide
       orientation="0,1"
       position="289.28571,80"
       id="guide3012" />
    <sodipodi:guide
       orientation="0,1"
       position="167.85714,165"
       id="guide3014" />
    <sodipodi:guide
       orientation="0,1"
       position="300.39411,40.027295"
       id="guide3016" />
  </sodipodi:namedview>
  <metadata
     id="metadata3112">
    <rdf:RDF>
      <cc:Work
         rdf:about="">
        <dc:format>image/svg+xml</dc:format>
        <dc:type
           rdf:resource="http://purl.org/dc/dcmitype/StillImage" />
        <dc:title></dc:title>
      </cc:Work>
    </rdf:RDF>
  </metadata>
  <g
     inkscape:label="Layer 1"
     inkscape:groupmode="layer"
     id="layer1"
     transform="translate(0,-802.36218)">
    <path
       inkscape:connector-curvature="0"
       d="m 83.62898,1012.5481 c -0.137177,-1.1077 -0.228959,-2.5 -0.228959,-4.7685 -1.808761,3.1457 -4.818559,5.006 -8.241771,5.006 -2.964666,0 -5.234195,-1.437 -6.159459,-3.8922 -0.461634,-1.2516 -0.647483,-3.1485 -0.647483,-7.1786 l 0,-7.63833 c 0,-2.4091 -0.185786,-3.3784 -0.694271,-3.796 -0.281058,-0.2782 -0.694648,-0.3744 -1.57817,-0.4154 -0.599401,0 -0.599401,0 -0.833407,0 l 0,-1.0204 7.176669,-0.4607 c -0.228633,4.3018 -0.273727,5.4155 -0.273727,8.611 l 0,4.02723 c 0,4.6754 0.09001,5.927 0.647521,7.5463 0.554658,1.713 1.85172,2.5912 3.749024,2.5912 2.546105,0 4.815659,-1.6667 6.02163,-4.491 0.691333,-1.5716 0.833356,-2.5924 0.833356,-5.4617 l 0,-7.13053 c 0,-2.4542 -0.141922,-3.3342 -0.697648,-3.749 -0.279803,-0.2814 -0.741411,-0.4214 -1.574781,-0.4624 l -0.834247,0 0,-1.0204 7.178677,-0.4607 c -0.139186,3.4701 -0.2296,6.5252 -0.2296,8.611 l 0,8.74993 c 0,4.6325 0.417721,5.464 2.82051,5.464 l 0.325724,0 0,1.0158 -6.759676,0.3234"
       style="fill:#72634d;fill-opacity:1;fill-rule:nonzero;stroke:none"
       id="path3849-6-1-4"
       inkscape:export-filename="/home/vinicius/Dropbox/uOttawa/lab/lab imgs/path3861-7-7-5.png"
       inkscape:export-xdpi="90"
       inkscape:export-ydpi="90" />
    <path
       inkscape:connector-curvature="0"
       d="m 105.38952,1006.5321 c 1.85111,3.2912 4.77052,5.0461 8.47489,5.0461 3.70433,0 6.62161,-1.7549 8.47168,-5.0461 1.66608,-3.0109 2.49913,-6.62493 2.49913,-11.10943 0,-4.494 -0.83305,-8.1071 -2.49913,-11.1159 -1.85007,-3.3304 -4.76735,-5.045 -8.47168,-5.045 -3.70437,0 -6.62378,1.76 -8.47489,5.045 -1.66609,3.0561 -2.49698,6.7111 -2.49698,11.1159 0,4.3924 0.83089,8.00593 2.49698,11.10943 z m -3.33111,-23.24023 c 2.77505,-3.4766 6.80448,-5.2782 11.806,-5.2782 5.04644,0 8.98174,1.7569 11.80281,5.2782 2.54726,3.2364 3.84657,7.263 3.84657,12.1308 0,4.85923 -1.29931,8.93313 -3.84657,12.07873 -2.86919,3.5674 -6.75637,5.3239 -11.80281,5.3239 -5.00152,0 -9.0748,-1.8508 -11.806,-5.3239 -2.54726,-3.2376 -3.84659,-7.2658 -3.84659,-12.07873 0,-4.8678 1.25226,-8.8487 3.84659,-12.1308"
       style="fill:#72634d;fill-opacity:1;fill-rule:nonzero;stroke:none"
       id="path3851-6-8-4"
       inkscape:export-filename="/home/vinicius/Dropbox/uOttawa/lab/lab imgs/path3861-7-7-5.png"
       inkscape:export-xdpi="90"
       inkscape:export-ydpi="90" />
    <path
       inkscape:connector-curvature="0"
       d="m 140.02587,1005.6535 c 0,2.7273 0.13374,3.9354 0.60097,4.5819 0.46411,0.6473 1.20198,0.9735 2.26604,0.9735 1.01697,0 1.89706,-0.2334 2.91407,-0.8315 l 0.42132,1.2008 c -1.52816,0.7905 -3.00927,1.1572 -4.67856,1.1572 -2.26815,0 -3.98133,-0.7875 -4.77052,-2.2675 -0.51012,-0.928 -0.64377,-1.9451 -0.64377,-5.3708 l 0,-15.00143 -2.91512,0 0,-1.0655 c 2.72798,-0.2334 4.1171,-2.0363 4.81009,-6.3868 l 2.12914,-0.6082 c -0.0877,1.9931 -0.13374,3.7535 -0.13374,6.8095 l 5.5554,0 0,1.251 -5.5554,0 0,15.55783"
       style="fill:#72634d;fill-opacity:1;fill-rule:nonzero;stroke:none"
       id="path3853-2-7-3"
       inkscape:export-filename="/home/vinicius/Dropbox/uOttawa/lab/lab imgs/path3861-7-7-5.png"
       inkscape:export-xdpi="90"
       inkscape:export-ydpi="90" />
    <path
       inkscape:connector-curvature="0"
       d="m 155.29022,1005.6535 c 0,2.7273 0.13374,3.9354 0.59778,4.5819 0.46627,0.6473 1.20415,0.9735 2.27141,0.9735 1.01696,0 1.89812,-0.2334 2.91513,-0.8315 l 0.41599,1.2008 c -1.52495,0.7905 -3.00603,1.1572 -4.67321,1.1572 -2.2714,0 -3.98667,-0.7875 -4.76946,-2.2675 -0.51223,-0.928 -0.65018,-1.9451 -0.65018,-5.3708 l 0,-15.00143 -2.91515,0 0,-1.0655 c 2.73015,-0.2334 4.11819,-2.0363 4.81221,-6.3868 l 2.12915,-0.6082 c -0.0891,1.9931 -0.13372,3.7535 -0.13372,6.8095 l 5.55653,0 0,1.251 -5.55653,0 0,15.55783"
       style="fill:#72634d;fill-opacity:1;fill-rule:nonzero;stroke:none"
       id="path3855-9-5-7"
       inkscape:export-filename="/home/vinicius/Dropbox/uOttawa/lab/lab imgs/path3861-7-7-5.png"
       inkscape:export-xdpi="90"
       inkscape:export-ydpi="90" />
    <path
       inkscape:connector-curvature="0"
       d="m 179.50323,999.30947 c -4.12034,0.3681 -5.9276,0.74193 -7.77978,1.66413 -2.03396,0.9789 -3.10121,2.8291 -3.10121,5.2807 0,2.9167 1.57201,4.9054 3.89044,4.9054 2.36119,0 4.76838,-1.3873 5.92758,-3.3801 0.73897,-1.2925 1.06297,-3.238 1.06297,-6.2946 l 0,-2.17553 z m 6.71575,12.82573 c -1.80833,0.2782 -3.84658,0.4605 -4.77159,0.4605 -1.387,0 -1.75702,-0.7409 -1.94416,-3.8405 -0.74002,0.8337 -1.34207,1.3393 -2.26708,1.9897 -2.03614,1.4798 -3.66052,1.9905 -6.01957,1.9905 -2.03613,0 -3.56855,-0.4648 -4.72348,-1.4329 -1.2512,-1.113 -2.03716,-2.9659 -2.03716,-4.9081 0,-3.6588 2.31736,-6.0214 6.80767,-7.03823 2.40722,-0.5529 4.85928,-0.8819 8.23962,-1.1128 l 0,-2.9157 c 0,-2.1319 -0.18705,-3.2405 -0.64485,-4.2107 -0.60844,-1.2109 -1.90135,-1.807 -3.79842,-1.807 -3.0531,0 -4.63261,1.3881 -4.81546,4.258 -0.0506,0.9734 -0.14136,1.2951 -0.5101,1.5756 -0.32615,0.2334 -0.92608,0.3658 -1.62227,0.3658 -1.57091,0 -2.26817,-0.4161 -2.26817,-1.3846 0,-1.6721 1.20417,-3.3365 3.14829,-4.4461 1.75912,-0.9731 4.02837,-1.4805 6.76066,-1.4805 2.96113,0 5.09347,0.6913 6.20668,2.035 0.92502,1.1521 1.34209,2.6854 1.34209,5.2333 0,0.1376 0,0.1376 -0.094,4.67633 l -0.0447,4.3988 -0.0459,2.1271 c 0,1.9465 0.22768,3.6128 0.50799,3.9873 0.27916,0.3668 0.83089,0.5037 2.59429,0.5037 l 0,0.9755"
       style="fill:#72634d;fill-opacity:1;fill-rule:nonzero;stroke:none"
       id="path3857-7-2-3"
       inkscape:export-filename="/home/vinicius/Dropbox/uOttawa/lab/lab imgs/path3861-7-7-5.png"
       inkscape:export-xdpi="90"
       inkscape:export-ydpi="90" />
    <path
       inkscape:connector-curvature="0"
       d="m 197.79079,1012.4128 -2.40612,0 -5.74043,-19.21703 c -0.7871,-2.6409 -1.3432,-3.1932 -3.61027,-3.3307 l 0,-1.0204 10.27572,0 0,1.0204 c -2.22111,0.089 -3.10229,0.5542 -3.10229,1.7124 0,0.3687 0.1401,1.0657 0.41919,2.034 l 4.1642,14.54143 6.11578,-18.70353 1.89604,0 5.88163,18.70353 4.02621,-13.61153 c 0.37323,-1.1582 0.55608,-2.042 0.55608,-2.6873 0,-0.7895 -0.46304,-1.3888 -1.29826,-1.6676 -0.55389,-0.1855 -0.88006,-0.2335 -2.08419,-0.3214 l 0,-1.0204 9.07694,0 0,1.0204 c -2.54621,0.1376 -3.42418,1.0191 -4.53634,4.5807 l -5.60358,17.96703 -2.36014,0 -5.78534,-17.78193 -5.88483,17.78193"
       style="fill:#72634d;fill-opacity:1;fill-rule:nonzero;stroke:none"
       id="path3859-3-6-9"
       inkscape:export-filename="/home/vinicius/Dropbox/uOttawa/lab/lab imgs/path3861-7-7-5.png"
       inkscape:export-xdpi="90"
       inkscape:export-ydpi="90" />
    <path
       inkscape:connector-curvature="0"
       d="m 237.28635,999.30947 c -4.11824,0.3681 -5.9276,0.74193 -7.77655,1.66413 -2.04039,0.9789 -3.10549,2.8291 -3.10549,5.2807 0,2.9167 1.5752,4.9054 3.89251,4.9054 2.36014,0 4.76949,-1.3873 5.92446,-3.3801 0.74214,-1.2925 1.06507,-3.238 1.06507,-6.2946 l 0,-2.17553 z m 6.71362,12.82573 c -1.8062,0.2782 -3.83907,0.4605 -4.76949,0.4605 -1.38697,0 -1.76128,-0.7409 -1.94413,-3.8405 -0.74,0.8337 -1.34206,1.3393 -2.26495,1.9897 -2.04251,1.4798 -3.66265,1.9905 -6.02172,1.9905 -2.03504,0 -3.56639,-0.4648 -4.72344,-1.4329 -1.25227,-1.113 -2.03614,-2.9659 -2.03614,-4.9081 0,-3.6588 2.31523,-6.0214 6.80559,-7.03823 2.40611,-0.5529 4.86034,-0.8819 8.24066,-1.1128 l 0,-2.9157 c 0,-2.1319 -0.18513,-3.2405 -0.64914,-4.2107 -0.59987,-1.2109 -1.89596,-1.807 -3.79311,-1.807 -3.05949,0 -4.63149,1.3881 -4.81862,4.258 -0.046,0.9734 -0.13681,1.2951 -0.50904,1.5756 -0.31882,0.2334 -0.92392,0.3658 -1.62222,0.3658 -1.56986,0 -2.26391,-0.4161 -2.26391,-1.3846 0,-1.6721 1.20414,-3.3365 3.14721,-4.4461 1.75804,-0.9731 4.02838,-1.4805 6.7585,-1.4805 2.96329,0 5.09563,0.6913 6.2078,2.035 0.92179,1.1521 1.34098,2.6854 1.34098,5.2333 0,0.1376 0,0.1376 -0.094,4.67633 l -0.0429,4.3988 -0.0502,2.1271 c 0,1.9465 0.23215,3.6128 0.51438,3.9873 0.27372,0.3668 0.82983,0.5037 2.58792,0.5037 l 0,0.9755"
       style="fill:#72634d;fill-opacity:1;fill-rule:nonzero;stroke:none"
       id="path3861-7-7-5"
       inkscape:export-xdpi="90"
       inkscape:export-ydpi="90" />
    <text
       xml:space="preserve"
       style="font-size:40px;font-style:normal;font-weight:normal;line-height:125%;letter-spacing:0px;word-spacing:0px;fill:#000000;fill-opacity:1;stroke:none;font-family:Bitstream Vera Sans"
       x="-1.9258125"
       y="888.07617"
       id="text3022"
       sodipodi:linespacing="125%"><tspan
         sodipodi:role="line"
         id="tspan3024"
         x="-1.9258125"
         y="888.07617"
         style="font-size:72px;font-style:normal;font-variant:normal;font-weight:bold;font-stretch:condensed;text-align:start;line-height:125%;letter-spacing:-3.5px;writing-mode:lr-tb;text-anchor:start;fill:#72634d;fill-opacity:1;font-family:Myriad Pro;-inkscape-font-specification:Myriad Pro Bold Condensed">BioInspired</tspan></text>
    <text
       xml:space="preserve"
       style="font-size:40px;font-style:normal;font-weight:normal;line-height:125%;letter-spacing:0px;word-spacing:0px;fill:#000000;fill-opacity:1;stroke:none;font-family:Bitstream Vera Sans"
       x="-3.3622625"
       y="965.57617"
       id="text3022-9"
       sodipodi:linespacing="125%"><tspan
         sodipodi:role="line"
         id="tspan3024-1"
         x="-3.3622625"
         y="965.57617"
         style="font-size:85px;font-style:normal;font-variant:normal;font-weight:bold;font-stretch:condensed;text-align:start;line-height:125%;letter-spacing:-4.30000019px;writing-mode:lr-tb;text-anchor:start;fill:#72634d;fill-opacity:1;font-family:Myriad Pro;-inkscape-font-specification:Myriad Pro Bold Condensed"
         dx="0"
         rotate="0 0 0 0 0 0 0 0 0">ROBOTICS</tspan></text>
  </g>
</svg>
