<?xml version="1.0" encoding="UTF-8" standalone="no"?>
<!-- Created with Inkscape (http://www.inkscape.org/) -->

<svg
   xmlns:dc="http://purl.org/dc/elements/1.1/"
   xmlns:cc="http://creativecommons.org/ns#"
   xmlns:rdf="http://www.w3.org/1999/02/22-rdf-syntax-ns#"
   xmlns:svg="http://www.w3.org/2000/svg"
   xmlns="http://www.w3.org/2000/svg"
   xmlns:sodipodi="http://sodipodi.sourceforge.net/DTD/sodipodi-0.dtd"
   xmlns:inkscape="http://www.inkscape.org/namespaces/inkscape"
   width="250"
   height="250"
   id="svg3107"
   version="1.1"
   inkscape:version="0.48.4 r9939"
   sodipodi:docname="bioInRoboticsUOttawa-squared-250.svg"
   inkscape:export-filename="/home/vinicius/Desktop/bioInRoboticsUOttawa-squared-250.png"
   inkscape:export-xdpi="90"
   inkscape:export-ydpi="90">
  <defs
     id="defs3109" />
  <sodipodi:namedview
     id="base"
     pagecolor="#ffffff"
     bordercolor="#666666"
     borderopacity="1.0"
     inkscape:pageopacity="1"
     inkscape:pageshadow="2"
     inkscape:zoom="1.4"
     inkscape:cx="42.729283"
     inkscape:cy="75.50876"
     inkscape:document-units="px"
     inkscape:current-layer="layer1"
     showgrid="false"
     inkscape:window-width="1366"
     inkscape:window-height="744"
     inkscape:window-x="0"
     inkscape:window-y="24"
     inkscape:window-maximized="1" />
  <metadata
     id="metadata3112">
    <rdf:RDF>
      <cc:Work
         rdf:about="">
        <dc:format>image/svg+xml</dc:format>
        <dc:type
           rdf:resource="http://purl.org/dc/dcmitype/StillImage" />
        <dc:title></dc:title>
      </cc:Work>
    </rdf:RDF>
  </metadata>
  <g
     inkscape:label="Layer 1"
     inkscape:groupmode="layer"
     id="layer1"
     transform="translate(0,-802.36218)">
    <text
       xml:space="preserve"
       style="font-size:43.95018768px;font-style:normal;font-variant:normal;font-weight:600;font-stretch:normal;text-align:center;line-height:125%;letter-spacing:0px;word-spacing:0px;writing-mode:lr-tb;text-anchor:middle;fill:#72634d;fill-opacity:1;stroke:none;font-family:Myriad Pro;-inkscape-font-specification:Myriad Pro Semi-Bold"
       x="124.2439"
       y="907.53699"
       id="text2985-1-4-4-7"
       sodipodi:linespacing="125%"><tspan
         sodipodi:role="line"
         x="124.2439"
         y="907.53699"
         id="tspan2991-0-3-3-8"
         style="font-size:43.95018768px;font-style:normal;font-variant:normal;font-weight:600;font-stretch:normal;text-align:center;line-height:125%;writing-mode:lr-tb;text-anchor:middle;fill:#72634d;fill-opacity:1;font-family:Myriad Pro;-inkscape-font-specification:Myriad Pro Semi-Bold">BIOINSPIRED</tspan></text>
    <text
       xml:space="preserve"
       style="font-size:43.95018768px;font-style:normal;font-variant:normal;font-weight:600;font-stretch:normal;text-align:start;line-height:125%;letter-spacing:6.59252739px;word-spacing:0px;writing-mode:lr-tb;text-anchor:start;fill:#72634d;fill-opacity:1;stroke:none;font-family:Myriad Pro;-inkscape-font-specification:Myriad Pro Semi-Bold"
       x="1.3082602"
       y="941.10028"
       id="text2993-4-6-1-9"
       sodipodi:linespacing="125%"><tspan
         sodipodi:role="line"
         id="tspan2995-9-3-1-5"
         x="1.3082602"
         y="941.10028"
         style="font-size:43.95018768px;font-style:normal;font-variant:normal;font-weight:600;font-stretch:normal;text-align:start;line-height:125%;letter-spacing:7.39828205px;writing-mode:lr-tb;text-anchor:start;fill:#72634d;fill-opacity:1;font-family:Myriad Pro;-inkscape-font-specification:Myriad Pro Semi-Bold">ROBOTICS</tspan></text>
    <path
       inkscape:connector-curvature="0"
       d="m 115.32917,977.11638 c -0.10927,-0.88234 -0.18238,-1.99139 -0.18238,-3.79834 -1.44079,2.50564 -3.83828,3.98759 -6.56508,3.98759 -2.36154,0 -4.16936,-1.1447 -4.90639,-3.10043 -0.36772,-0.99696 -0.51576,-2.50796 -0.51576,-5.71816 l 0,-6.08444 c 0,-1.91904 -0.14799,-2.6911 -0.55303,-3.02376 -0.22388,-0.2216 -0.55333,-0.29827 -1.25711,-0.33088 -0.47746,0 -0.47746,0 -0.66386,0 l 0,-0.8128 5.71666,-0.36704 c -0.18212,3.42672 -0.21804,4.31388 -0.21804,6.85929 l 0,3.20791 c 0,3.72422 0.0717,4.7212 0.51579,6.01108 0.44182,1.36453 1.47501,2.06399 2.98633,2.06399 2.02813,0 3.83597,-1.32759 4.7966,-3.57726 0.55069,-1.25194 0.66382,-2.06499 0.66382,-4.35058 l 0,-5.67995 c 0,-1.95497 -0.11305,-2.65594 -0.55572,-2.98631 -0.22288,-0.22416 -0.59058,-0.33572 -1.25441,-0.36833 l -0.66453,0 0,-0.8128 5.71826,-0.36704 c -0.11087,2.76419 -0.18289,5.19776 -0.18289,6.85929 l 0,6.96983 c 0,3.69011 0.33274,4.35238 2.24671,4.35238 l 0.25946,0 0,0.80923 -5.3845,0.25753"
       style="fill:#72634d;fill-opacity:1;fill-rule:nonzero;stroke:none"
       id="path3849-6-1-4" />
    <path
       inkscape:connector-curvature="0"
       d="m 132.66279,972.32436 c 1.47452,2.62157 3.80001,4.01946 6.75077,4.01946 2.95073,0 5.27452,-1.39789 6.74822,-4.01946 1.32713,-2.39842 1.99071,-5.27724 1.99071,-8.84941 0,-3.57981 -0.66358,-6.45785 -1.99071,-8.85449 -1.4737,-2.65289 -3.79749,-4.01868 -6.74822,-4.01868 -2.95076,0 -5.27625,1.40196 -6.75077,4.01868 -1.32715,2.43433 -1.989,5.34576 -1.989,8.85449 0,3.49882 0.66185,6.37713 1.989,8.84941 z m -2.65344,-18.51238 c 2.2105,-2.76929 5.42019,-4.20438 9.40421,-4.20438 4.0198,0 7.15451,1.39943 9.40167,4.20438 2.02905,2.578 3.06403,5.78541 3.06403,9.66297 0,3.87071 -1.03498,7.11581 -3.06403,9.62147 -2.28549,2.84164 -5.38187,4.2408 -9.40167,4.2408 -3.98402,0 -7.22864,-1.4743 -9.40421,-4.2408 -2.02905,-2.57902 -3.06405,-5.78771 -3.06405,-9.62147 0,-3.87756 0.99751,-7.04853 3.06405,-9.66297"
       style="fill:#72634d;fill-opacity:1;fill-rule:nonzero;stroke:none"
       id="path3851-6-8-4" />
    <path
       inkscape:connector-curvature="0"
       d="m 160.25278,971.62441 c 0,2.17248 0.10653,3.13481 0.47871,3.64985 0.36969,0.51555 0.95745,0.77536 1.80504,0.77536 0.81008,0 1.51113,-0.18594 2.32124,-0.66227 l 0.33561,0.95647 c -1.21728,0.62965 -2.39707,0.92182 -3.72677,0.92182 -1.80672,0 -3.17137,-0.62737 -3.80001,-1.8062 -0.40634,-0.73919 -0.5128,-1.54945 -0.5128,-4.27825 l 0,-11.94959 -2.32208,0 0,-0.8487 c 2.17301,-0.18596 3.27953,-1.62204 3.83154,-5.08749 l 1.69599,-0.48447 c -0.0699,1.58765 -0.10653,2.98988 -0.10653,5.42422 l 4.42522,0 0,0.99644 -4.42522,0 0,12.39281"
       style="fill:#72634d;fill-opacity:1;fill-rule:nonzero;stroke:none"
       id="path3853-2-7-3" />
    <path
       inkscape:connector-curvature="0"
       d="m 172.41178,971.62441 c 0,2.17248 0.10653,3.13481 0.47617,3.64985 0.37141,0.51555 0.95918,0.77536 1.80932,0.77536 0.81007,0 1.51197,-0.18594 2.32208,-0.66227 l 0.33136,0.95647 c -1.21472,0.62965 -2.39449,0.92182 -3.7225,0.92182 -1.80931,0 -3.17563,-0.62737 -3.79917,-1.8062 -0.40802,-0.73919 -0.51791,-1.54945 -0.51791,-4.27825 l 0,-11.94959 -2.3221,0 0,-0.8487 c 2.17474,-0.18596 3.2804,-1.62204 3.83323,-5.08749 l 1.696,-0.48447 c -0.071,1.58765 -0.10652,2.98988 -0.10652,5.42422 l 4.42612,0 0,0.99644 -4.42612,0 0,12.39281"
       style="fill:#72634d;fill-opacity:1;fill-rule:nonzero;stroke:none"
       id="path3855-9-5-7" />
    <path
       inkscape:connector-curvature="0"
       d="m 191.69894,966.57106 c -3.28211,0.29317 -4.7217,0.59094 -6.19708,1.32554 -1.62017,0.7797 -2.4703,2.2535 -2.4703,4.20642 0,2.32328 1.2522,3.90737 3.09897,3.90737 1.88084,0 3.79831,-1.10497 4.72169,-2.69235 0.58863,-1.02959 0.84672,-2.57928 0.84672,-5.01414 l 0,-1.73284 z m 5.34951,10.21648 c -1.44045,0.2216 -3.06404,0.36678 -3.80087,0.36678 -1.10483,0 -1.39957,-0.59018 -1.54864,-3.05916 -0.58947,0.66406 -1.06904,1.06677 -1.80587,1.58486 -1.62191,1.17883 -2.91583,1.58562 -4.79496,1.58562 -1.6219,0 -2.84257,-0.37035 -3.76254,-1.14138 -0.99666,-0.88668 -1.62273,-2.36252 -1.62273,-3.90968 0,-2.91448 1.84592,-4.79633 5.42273,-5.60634 1.9175,-0.44041 3.87072,-0.7025 6.56337,-0.88641 l 0,-2.32253 c 0,-1.6982 -0.149,-2.5813 -0.51366,-3.35411 -0.48466,-0.96462 -1.51455,-1.43943 -3.02568,-1.43943 -2.43198,0 -3.69016,1.10574 -3.83581,3.39183 -0.0403,0.77536 -0.1126,1.03163 -0.40633,1.25501 -0.2598,0.18594 -0.73768,0.29138 -1.29224,0.29138 -1.25132,0 -1.80673,-0.33138 -1.80673,-1.10292 0,-1.33192 0.95919,-2.65772 2.5078,-3.5416 1.40125,-0.7751 3.20885,-1.17934 5.38529,-1.17934 2.35872,0 4.05726,0.55069 4.944,1.62102 0.73684,0.91776 1.06906,2.13912 1.06906,4.16872 0,0.10955 0,0.10955 -0.0749,3.72498 l -0.0356,3.50392 -0.0366,1.69437 c 0,1.55047 0.18136,2.8778 0.40464,3.17608 0.22237,0.29217 0.66186,0.40118 2.06652,0.40118 l 0,0.77715"
       style="fill:#72634d;fill-opacity:1;fill-rule:nonzero;stroke:none"
       id="path3857-7-2-3" />
    <path
       inkscape:connector-curvature="0"
       d="m 206.26611,977.00864 -1.91662,0 -4.57261,-15.30754 c -0.62697,-2.10371 -1.06994,-2.5436 -2.8758,-2.65314 l 0,-0.8128 8.18524,0 0,0.8128 c -1.76925,0.0713 -2.47116,0.44142 -2.47116,1.36402 0,0.29369 0.1116,0.84896 0.33391,1.62026 l 3.31704,11.58305 4.8716,-14.89845 1.51031,0 4.68508,14.89845 3.20713,-10.84234 c 0.2973,-0.92257 0.44295,-1.62663 0.44295,-2.14064 0,-0.6289 -0.36884,-1.10624 -1.03414,-1.32835 -0.44121,-0.14774 -0.70103,-0.18596 -1.66019,-0.256 l 0,-0.8128 7.23034,0 0,0.8128 c -2.02821,0.10957 -2.72757,0.81179 -3.61347,3.64883 l -4.4636,14.31185 -1.88,0 -4.60838,-14.16437 -4.68763,14.16437"
       style="fill:#72634d;fill-opacity:1;fill-rule:nonzero;stroke:none"
       id="path3859-3-6-9" />
    <path
       inkscape:connector-curvature="0"
       d="m 237.72677,966.57106 c -3.28044,0.29317 -4.7217,0.59094 -6.19451,1.32554 -1.62529,0.7797 -2.47371,2.2535 -2.47371,4.20642 0,2.32328 1.25474,3.90737 3.10062,3.90737 1.88,0 3.7992,-1.10497 4.7192,-2.69235 0.59116,-1.02959 0.8484,-2.57928 0.8484,-5.01414 l 0,-1.73284 z m 5.34781,10.21648 c -1.43875,0.2216 -3.05806,0.36678 -3.79919,0.36678 -1.10481,0 -1.40297,-0.59018 -1.54862,-3.05916 -0.58946,0.66406 -1.06904,1.06677 -1.80418,1.58486 -1.62698,1.17883 -2.91752,1.58562 -4.79667,1.58562 -1.62103,0 -2.84085,-0.37035 -3.76251,-1.14138 -0.99751,-0.88668 -1.62191,-2.36252 -1.62191,-3.90968 0,-2.91448 1.84422,-4.79633 5.42107,-5.60634 1.91662,-0.44041 3.87156,-0.7025 6.5642,-0.88641 l 0,-2.32253 c 0,-1.6982 -0.14747,-2.5813 -0.51708,-3.35411 -0.47784,-0.96462 -1.51025,-1.43943 -3.02145,-1.43943 -2.43707,0 -3.68927,1.10574 -3.83833,3.39183 -0.0366,0.77536 -0.10898,1.03163 -0.40548,1.25501 -0.25396,0.18594 -0.73596,0.29138 -1.2922,0.29138 -1.25049,0 -1.80334,-0.33138 -1.80334,-1.10292 0,-1.33192 0.95917,-2.65772 2.50694,-3.5416 1.40039,-0.7751 3.20886,-1.17934 5.38357,-1.17934 2.36044,0 4.05898,0.55069 4.94489,1.62102 0.73427,0.91776 1.06818,2.13912 1.06818,4.16872 0,0.10955 0,0.10955 -0.0749,3.72498 l -0.0342,3.50392 -0.04,1.69437 c 0,1.55047 0.18492,2.8778 0.40973,3.17608 0.21804,0.29217 0.66101,0.40118 2.06144,0.40118 l 0,0.77715"
       style="fill:#72634d;fill-opacity:1;fill-rule:nonzero;stroke:none"
       id="path3861-7-7-5" />
  </g>
</svg>
